<svg width="19" height="16" viewBox="0 0 19 16" fill="none" xmlns="http://www.w3.org/2000/svg">
<path d="M18.7554 12.0645L18.257 11.5354C18.2048 11.4801 18.134 11.4489 18.0602 11.4489C17.9864 11.4489 17.9156 11.4801 17.8634 11.5354C17.8375 11.5629 17.817 11.5954 17.803 11.6313C17.789 11.6671 17.7818 11.7055 17.7818 11.7443C17.7818 11.7831 17.789 11.8215 17.803 11.8573C17.817 11.8932 17.8375 11.9258 17.8633 11.9532L18.3619 12.4823C18.4144 12.5381 18.4434 12.6122 18.4434 12.6911C18.4434 12.77 18.4144 12.8441 18.3618 12.8999L17.6809 13.6226C17.5724 13.7377 17.3958 13.7377 17.2873 13.6226L14.3768 10.5337L15.4513 9.39338L16.9449 10.9785C16.9972 11.0335 17.0679 11.0643 17.1415 11.0641C17.2151 11.0639 17.2856 11.0328 17.3377 10.9776C17.3897 10.9224 17.419 10.8475 17.4192 10.7694C17.4193 10.6913 17.3904 10.6163 17.3385 10.5608L15.8071 8.93564C15.7605 8.88588 15.7051 8.84644 15.644 8.81959C15.5829 8.79274 15.5174 8.77901 15.4513 8.77921C15.3373 8.77895 15.2268 8.82006 15.1379 8.8957L14.2349 7.93736C14.721 7.16841 15.005 6.24398 15.005 5.25043C15.005 2.58446 12.9613 0.415528 10.4492 0.415528C9.87814 0.415528 9.33156 0.528162 8.82743 0.732756V0.413519C8.82743 0.185493 8.65264 0 8.43778 0H1.42411C1.20925 0 1.03446 0.185493 1.03446 0.413519V3.10935C1.03446 3.33737 1.20925 3.52287 1.42411 3.52287H6.1947C5.99516 4.0742 5.89303 4.65983 5.89345 5.25043C5.89345 7.5114 7.3635 9.41457 9.3424 9.94076V15.4093H8.7213V10.8783C8.7213 10.6364 8.5359 10.4397 8.30797 10.4397H6.9864C6.75847 10.4397 6.57307 10.6364 6.57307 10.8783V15.4092H5.95197V13.1985C5.95197 13.0354 5.8274 12.9031 5.67365 12.9031C5.51991 12.9031 5.39533 13.0354 5.39533 13.1985V15.4092H4.36043V8.49305H5.39533V11.8201C5.39533 11.9832 5.51991 12.1155 5.67365 12.1155C5.8274 12.1155 5.95197 11.9832 5.95197 11.8201V8.34092C5.95197 8.09907 5.76657 7.90231 5.53869 7.90231H4.21711C3.98918 7.90231 3.80378 8.09907 3.80378 8.34092V15.4092H3.18272V5.4733C3.18272 5.23145 2.99732 5.03469 2.7694 5.03469H1.44782C1.2199 5.03469 1.0345 5.23145 1.0345 5.4733V15.4093H0.27832C0.124576 15.4093 0 15.5415 0 15.7046C0 15.8678 0.124576 16 0.27832 16H12.2468C12.4005 16 12.5251 15.8678 12.5251 15.7046C12.5251 15.5415 12.4005 15.4093 12.2468 15.4093H11.4906V9.9575C12.0225 9.82486 12.5275 9.59127 12.9811 9.26799L13.8877 10.2302C13.7521 10.4382 13.771 10.7263 13.9454 10.9115L16.8937 14.0404C17.0565 14.2131 17.2703 14.2994 17.4841 14.2994C17.6979 14.2994 17.9117 14.2131 18.0745 14.0404L18.7554 13.3177C18.9131 13.1503 19 12.9278 19 12.6911C19.0003 12.5747 18.9788 12.4594 18.9369 12.3518C18.8949 12.2443 18.8332 12.1466 18.7554 12.0645ZM2.62608 15.4092H1.59114V5.62543H2.62608V15.4092ZM8.16469 15.4092H7.12975V11.0304H8.16469V15.4092ZM1.59114 2.93209V0.590741H8.27083V2.93213L1.59114 2.93209ZM10.934 15.4092H9.89907V10.0499C10.0795 10.0731 10.263 10.0853 10.4493 10.0853C10.613 10.0853 10.7746 10.0755 10.934 10.0576V15.4092ZM10.4493 9.49456C8.24411 9.49456 6.45009 7.59064 6.45009 5.25039C6.44958 4.65501 6.56782 4.06625 6.79703 3.52283H7.43724C7.16579 4.05304 7.02386 4.64698 7.0244 5.25039C7.0244 7.25458 8.56076 8.88511 10.4493 8.88511C12.073 8.88511 13.4848 7.65963 13.8063 5.97122C13.8209 5.89443 13.8062 5.81462 13.7654 5.74936C13.7245 5.68409 13.661 5.63871 13.5886 5.62319C13.5162 5.60767 13.441 5.6233 13.3795 5.66662C13.318 5.70995 13.2753 5.77742 13.2607 5.85421C12.9915 7.26813 11.8091 8.29437 10.4493 8.29437C8.86773 8.29437 7.58104 6.92885 7.58104 5.25039C7.58104 4.60904 7.76955 4.01397 8.09003 3.52283H8.43782C8.65268 3.52283 8.82747 3.33734 8.82747 3.10931V2.7423C9.28911 2.40483 9.84756 2.20642 10.4493 2.20642C11.7859 2.20642 12.9639 3.21206 13.2503 4.59758C13.2661 4.67411 13.3099 4.74083 13.3721 4.78307C13.4343 4.82531 13.5097 4.8396 13.5818 4.82281C13.654 4.80602 13.7168 4.75952 13.7566 4.69354C13.7964 4.62755 13.8099 4.54749 13.7941 4.47097C13.6294 3.67461 13.2086 2.95044 12.6092 2.43189C12.0007 1.90554 11.2337 1.61568 10.4493 1.61568C9.88299 1.6151 9.32555 1.76453 8.82747 2.05042V1.37158C9.32347 1.13706 9.87217 1.00623 10.4493 1.00623C12.6544 1.00623 14.4484 2.91015 14.4484 5.25039C14.4484 7.59064 12.6544 9.49456 10.4493 9.49456ZM13.4275 8.90626C13.594 8.75327 13.7499 8.58779 13.894 8.4111L14.7418 9.31084L14.2753 9.80599L13.4275 8.90626Z" fill="white"/>
<path d="M10.4493 2.94626C9.25211 2.94626 8.27814 3.9799 8.27814 5.25039C8.27814 6.52088 9.25211 7.55452 10.4493 7.55452C11.6464 7.55452 12.6204 6.52088 12.6204 5.25039C12.6204 3.9799 11.6464 2.94626 10.4493 2.94626ZM10.4493 6.96378C9.55904 6.96378 8.83478 6.19515 8.83478 5.25039C8.83478 4.88488 8.94354 4.54599 9.12801 4.26752L10.2526 5.4594C10.3048 5.5147 10.3755 5.54576 10.4493 5.54576H12.0392C11.9069 6.3502 11.2445 6.96378 10.4493 6.96378ZM10.5644 4.95502L9.52141 3.84955C9.78415 3.65299 10.1041 3.53705 10.4493 3.53705C11.2445 3.53705 11.9069 4.15063 12.0392 4.95506H10.5644V4.95502ZM3.46238 1.46606H2.53743C2.38368 1.46606 2.25911 1.59831 2.25911 1.76143C2.25911 1.92456 2.38368 2.0568 2.53743 2.0568H3.46238C3.53619 2.0568 3.60699 2.02569 3.65918 1.97029C3.71138 1.9149 3.7407 1.83977 3.7407 1.76143C3.7407 1.6831 3.71138 1.60797 3.65918 1.55257C3.60699 1.49718 3.53619 1.46606 3.46238 1.46606ZM7.32454 1.46606H4.31868C4.16493 1.46606 4.04036 1.59831 4.04036 1.76143C4.04036 1.92456 4.16493 2.0568 4.31868 2.0568H7.32454C7.47828 2.0568 7.60286 1.92456 7.60286 1.76143C7.60286 1.59831 7.47828 1.46606 7.32454 1.46606Z" fill="white"/>
</svg>
