<svg width="20" height="20" viewBox="0 0 20 20" fill="none" xmlns="http://www.w3.org/2000/svg">
<g clip-path="url(#clip0_2501_1833)">
<path d="M1.22762 9.53278L17.461 7.98569C18.2065 7.91471 18.8684 8.46147 18.9394 9.20681L19.6791 16.9683C19.7502 17.7137 19.2033 18.3756 18.458 18.4467L2.22464 19.9938C1.4791 20.0649 0.817196 19.5182 0.746103 18.7726L0.00646206 11.0113C-0.064631 10.2658 0.482082 9.60388 1.22762 9.53278Z" fill="#4FBA6F"/>
<path d="M3.71349 17.1187C3.44418 17.1149 3.17829 17.0577 2.93126 16.9504C2.68423 16.843 2.46097 16.6877 2.27444 16.4934C1.36152 15.534 1.2225 14.0748 1.93781 12.9601C2.09997 12.7078 2.3165 12.495 2.57155 12.3373C2.82659 12.1795 3.11368 12.0807 3.41182 12.0483C3.71082 12.024 4.01148 12.0668 4.29182 12.1736C4.57215 12.2804 4.82508 12.4485 5.03211 12.6656C5.94519 13.6248 6.08421 15.084 5.36875 16.1985C5.20663 16.4509 4.99004 16.6639 4.73487 16.8216C4.4797 16.9794 4.19243 17.0781 3.89415 17.1103C3.8341 17.1162 3.77379 17.119 3.71345 17.1187H3.71349ZM3.59006 12.7184C3.55205 12.7184 3.5142 12.7203 3.47619 12.7239C3.27743 12.7477 3.08649 12.8155 2.9173 12.9225C2.74811 13.0294 2.60495 13.1728 2.49827 13.3422C1.96605 14.1867 2.07054 15.2842 2.7528 16.0131C2.88964 16.1594 3.05745 16.2733 3.24396 16.3464C3.43047 16.4196 3.63097 16.4501 3.8308 16.4357C4.02959 16.412 4.22057 16.3442 4.38981 16.2372C4.55905 16.1302 4.70227 15.9868 4.80903 15.8175C5.07503 15.4098 5.19091 14.9223 5.1368 14.4385C5.09862 13.9533 4.89277 13.4964 4.55454 13.1463C4.43001 13.0148 4.28066 12.9093 4.1151 12.8358C3.94955 12.7624 3.77112 12.7225 3.59006 12.7184ZM7.13889 16.7998C7.05457 16.8002 6.97311 16.7692 6.91042 16.7128C6.84773 16.6564 6.8083 16.5787 6.79983 16.4948L6.38358 12.1059C6.37588 12.0457 6.38452 11.9845 6.4086 11.9287C6.43268 11.8729 6.47132 11.8246 6.52046 11.7889C6.56955 11.7531 6.62735 11.7313 6.6878 11.7255C6.74825 11.7198 6.80914 11.7304 6.86409 11.7562C6.91907 11.7821 6.9661 11.8222 7.00025 11.8725C7.0344 11.9227 7.05441 11.9812 7.05819 12.0418L7.47642 16.4286C7.48073 16.4729 7.47625 16.5176 7.46323 16.5602C7.45021 16.6028 7.42892 16.6424 7.40057 16.6767C7.37225 16.7111 7.33743 16.7395 7.2981 16.7604C7.25878 16.7813 7.21572 16.7942 7.17139 16.7984C7.16058 16.7994 7.14974 16.7999 7.13889 16.7998Z" fill="white"/>
<path d="M7.05101 14.4409C6.97913 14.4409 6.928 14.4409 6.90331 14.4385C6.8135 14.4352 6.72866 14.3964 6.66743 14.3307C6.6062 14.2649 6.57359 14.1775 6.57676 14.0876C6.5779 14.043 6.58795 13.999 6.60632 13.9583C6.6247 13.9176 6.65102 13.8809 6.68375 13.8505C6.71644 13.8201 6.75488 13.7965 6.79683 13.7811C6.83877 13.7657 6.88337 13.7588 6.928 13.7609C7.33483 13.7765 8.48728 13.7168 8.89822 13.2798C8.94697 13.2254 8.98391 13.1614 9.0067 13.0919C9.02949 13.0224 9.03764 12.949 9.03063 12.8762C9.02361 12.8035 9.0016 12.7329 8.96597 12.6691C8.93034 12.6052 8.88187 12.5495 8.82361 12.5053C8.33775 12.1548 7.17003 12.3199 6.79894 12.4037C6.61644 12.4456 6.43441 12.3318 6.39246 12.1493C6.38245 12.1059 6.38109 12.061 6.38845 12.0171C6.39581 11.9732 6.41175 11.9312 6.43536 11.8935C6.45896 11.8557 6.48977 11.823 6.52602 11.7972C6.56228 11.7714 6.60326 11.753 6.64664 11.743C6.82335 11.7022 8.39881 11.3615 9.22017 11.9539C9.35664 12.0547 9.47032 12.1831 9.5538 12.3308C9.63728 12.4785 9.68868 12.6422 9.70465 12.8111C9.72061 12.98 9.70081 13.1504 9.64654 13.3111C9.59228 13.4718 9.50476 13.6193 9.3897 13.744C8.78943 14.3809 7.50526 14.4409 7.05101 14.4409ZM11.144 16.4181C11.0597 16.418 10.9785 16.3865 10.9162 16.3298C10.8539 16.2731 10.8149 16.1952 10.8069 16.1114L10.3887 11.7244C10.371 11.5381 10.5076 11.3727 10.6937 11.3548L13.6066 11.0772C13.6958 11.0694 13.7844 11.0971 13.8532 11.1544C13.922 11.2116 13.9653 11.2938 13.9738 11.3829C13.9914 11.5683 13.8561 11.7333 13.6707 11.7521L11.0944 11.9975L11.448 15.7096L14.0243 15.4643C14.0837 15.4582 14.1437 15.468 14.1982 15.4926C14.2526 15.5172 14.2996 15.5558 14.3344 15.6043C14.3692 15.653 14.3905 15.7099 14.3961 15.7694C14.4018 15.8289 14.3916 15.8889 14.3666 15.9432C14.3416 15.9975 14.3027 16.0442 14.2538 16.0786C14.2049 16.113 14.1479 16.1339 14.0883 16.1391L11.1758 16.4169C11.1652 16.4178 11.1544 16.418 11.144 16.418L11.144 16.4181Z" fill="white"/>
<path d="M10.9188 14.0562C10.7315 14.0649 10.5727 13.9202 10.5639 13.7331C10.5551 13.5459 10.6998 13.3869 10.887 13.3782L13.0718 13.1701C13.1613 13.1616 13.2505 13.189 13.3197 13.2463C13.389 13.3036 13.4327 13.3861 13.4412 13.4756C13.4496 13.5651 13.4222 13.6543 13.3649 13.7236C13.3076 13.7928 13.2252 13.8365 13.1357 13.845L10.9514 14.0531C10.9401 14.0554 10.9293 14.0562 10.9188 14.0562ZM15.5133 16.0018C15.429 16.0016 15.3478 15.9701 15.2855 15.9133C15.2232 15.8566 15.1843 15.7787 15.1764 15.6948L14.7581 11.3079C14.751 11.2337 14.7686 11.1592 14.8081 11.0959C14.8476 11.0327 14.9069 10.9843 14.9768 10.9582C15.0466 10.932 15.1231 10.9296 15.1945 10.9514C15.2658 10.9731 15.328 11.0178 15.3714 11.0784L17.6055 14.1994L17.3069 11.0653C17.2993 11.0051 17.308 10.944 17.3321 10.8883C17.3562 10.8326 17.3947 10.7844 17.4438 10.7487C17.4928 10.7129 17.5506 10.6911 17.611 10.6853C17.6714 10.6795 17.7322 10.69 17.7871 10.7157C17.8421 10.7415 17.8892 10.7816 17.9234 10.8317C17.9575 10.8819 17.9776 10.9403 17.9815 11.0009L18.3995 15.3876C18.4065 15.4618 18.3889 15.5362 18.3493 15.5993C18.3098 15.6625 18.2506 15.7108 18.1808 15.737C18.1111 15.7631 18.0347 15.7655 17.9634 15.7438C17.8921 15.7222 17.8299 15.6776 17.7865 15.6171L15.5524 12.4961L15.8509 15.6307C15.8594 15.7201 15.8321 15.8092 15.7749 15.8785C15.7177 15.9478 15.6354 15.9915 15.5459 16.0001C15.5346 16.0001 15.5254 16.0018 15.5133 16.0018Z" fill="white"/>
<path d="M10.0714 0.708838C10.028 0.708838 9.98503 0.700595 9.94488 0.684424C9.90957 0.679707 9.87396 0.677657 9.83835 0.678291C9.75176 0.691564 9.66339 0.670786 9.59178 0.620315C9.52018 0.569844 9.4709 0.493604 9.45429 0.407588C9.43766 0.321607 9.45495 0.232527 9.50253 0.15901C9.55012 0.085493 9.62431 0.033245 9.70956 0.0132127C9.74921 0.00392191 9.78987 -0.000382215 9.83058 0.000400208C9.92167 -0.00159198 10.0128 0.00711896 10.1017 0.026494C10.1344 0.0336424 10.1666 0.0432908 10.1977 0.0553221C10.2709 0.0846134 10.3315 0.138467 10.3692 0.207625C10.407 0.276784 10.4194 0.356925 10.4045 0.434272C10.3895 0.51162 10.3481 0.581341 10.2873 0.631449C10.2265 0.681556 10.1501 0.708921 10.0714 0.708838Z" fill="black"/>
<path d="M17.6272 9.49162C17.5779 9.49173 17.5291 9.48105 17.4843 9.46033C17.4396 9.43962 17.3998 9.40937 17.368 9.3717L10.5477 1.30401C10.4961 1.24272 10.4679 1.16514 10.468 1.08503C10.4676 1.01143 10.4912 0.939703 10.5351 0.880683C10.5791 0.821664 10.6411 0.778558 10.7117 0.757881C10.7823 0.737238 10.8578 0.740128 10.9267 0.766113C10.9955 0.792099 11.0541 0.839772 11.0935 0.901942L17.8862 8.93577C17.9273 8.98516 17.9536 9.04525 17.9619 9.10901C17.9702 9.17277 17.9602 9.23757 17.933 9.29585C17.9058 9.35413 17.8627 9.40349 17.8085 9.43815C17.7544 9.47282 17.6915 9.49136 17.6272 9.49162H17.6272ZM1.69523 11.1866C1.63227 11.1866 1.57054 11.1691 1.51699 11.136C1.46343 11.1029 1.42016 11.0555 1.39203 10.9992C1.36385 10.9429 1.35191 10.8799 1.35757 10.8172C1.36323 10.7545 1.38625 10.6946 1.42406 10.6443L8.54528 1.08503C8.65758 0.935183 8.87012 0.904832 9.0198 1.01714C9.09175 1.07108 9.13933 1.15139 9.15207 1.24041C9.16481 1.32943 9.14166 1.41986 9.08773 1.49182L1.96632 11.0511C1.93473 11.0932 1.89379 11.1273 1.84675 11.1508C1.7997 11.1743 1.74782 11.1866 1.69523 11.1866Z" fill="#CB9080"/>
<path d="M9.83059 2.71216C9.08168 2.71216 8.47473 2.10513 8.47473 1.35626C8.47473 0.607398 9.08165 0.000366211 9.83055 0.000366211C10.5795 0.000366211 11.1865 0.607358 11.1865 1.35623C11.1865 1.53429 11.1514 1.71061 11.0833 1.87513C11.0152 2.03964 10.9153 2.18912 10.7894 2.31504C10.6635 2.44095 10.514 2.54083 10.3495 2.60897C10.185 2.67711 10.0087 2.71217 9.83059 2.71216Z" fill="#A5A5A4"/>
</g>
<defs>
<clipPath id="clip0_2501_1833">
<rect width="20" height="20" fill="white"/>
</clipPath>
</defs>
</svg>
