<svg width="19" height="19" viewBox="0 0 19 19" fill="none" xmlns="http://www.w3.org/2000/svg">
<path d="M9.5 19C14.7467 19 19 14.7467 19 9.5C19 4.25329 14.7467 0 9.5 0C4.25329 0 0 4.25329 0 9.5C0 14.7467 4.25329 19 9.5 19Z" fill="#E63946"/>
<path d="M10.507 9.5L12.8535 7.1535C12.9794 7.01843 13.0479 6.83979 13.0446 6.6552C13.0414 6.47062 12.9666 6.2945 12.836 6.16396C12.7055 6.03342 12.5294 5.95864 12.3448 5.95538C12.1602 5.95213 11.9816 6.02064 11.8465 6.1465L9.5 8.493L7.1535 6.1465C7.01843 6.02064 6.83979 5.95213 6.6552 5.95538C6.47062 5.95864 6.2945 6.03342 6.16396 6.16396C6.03342 6.2945 5.95864 6.47062 5.95538 6.6552C5.95213 6.83979 6.02064 7.01843 6.1465 7.1535L8.493 9.5L6.1465 11.8465C6.01307 11.9801 5.93813 12.1612 5.93813 12.35C5.93813 12.5388 6.01307 12.7199 6.1465 12.8535C6.28009 12.9869 6.46119 13.0619 6.65 13.0619C6.83881 13.0619 7.01991 12.9869 7.1535 12.8535L9.5 10.507L11.8465 12.8535C11.9801 12.9869 12.1612 13.0619 12.35 13.0619C12.5388 13.0619 12.7199 12.9869 12.8535 12.8535C12.9869 12.7199 13.0619 12.5388 13.0619 12.35C13.0619 12.1612 12.9869 11.9801 12.8535 11.8465L10.507 9.5Z" fill="#EDEBEA"/>
</svg>
