<svg width="20" height="14" viewBox="0 0 20 14" fill="none" xmlns="http://www.w3.org/2000/svg">
<path d="M0.691717 0.900079L7.5553 6.11206C7.57807 6.12993 7.60331 6.14509 7.63018 6.15763C7.72131 6.20055 7.81819 6.22257 7.91745 6.22257C8.02323 6.22257 8.12905 6.19675 8.28366 6.1094L15.1424 0.900443C15.1925 0.862511 15.2325 0.814218 15.2592 0.759381C15.2859 0.704545 15.2985 0.644666 15.2962 0.584477C15.2938 0.524288 15.2765 0.465438 15.2456 0.412576C15.2146 0.359714 15.1709 0.314288 15.118 0.279889C14.8364 0.0968329 14.5076 0 14.1667 0H1.66668C1.3257 0 0.996912 0.0968328 0.71617 0.279525C0.66319 0.313916 0.619505 0.359337 0.58857 0.412198C0.557634 0.465059 0.540295 0.523911 0.537923 0.584103C0.535551 0.644294 0.548211 0.704176 0.574903 0.759015C0.601595 0.813854 0.641587 0.862148 0.691717 0.900079Z" fill="white"/>
<path d="M10.9977 6.69729L12.1761 5.59745C12.4479 5.34378 12.8231 5.21654 13.2137 5.26477C13.3578 5.27768 13.5059 5.22642 13.5962 5.11781C13.8354 4.83107 14.1951 4.66664 14.5833 4.66664H15.4166C15.4713 4.66668 15.5255 4.65664 15.5761 4.63711C15.6267 4.61757 15.6726 4.58893 15.7113 4.55281C15.75 4.51669 15.7807 4.47381 15.8016 4.42661C15.8226 4.37941 15.8333 4.32882 15.8333 4.27774V2.19624C15.8333 2.04621 15.7405 1.9095 15.5957 1.84496C15.5245 1.81346 15.4452 1.80141 15.367 1.81022C15.2888 1.81902 15.2149 1.84833 15.1538 1.89473L8.76057 6.75008L8.68815 6.79529C8.20557 7.07062 7.61475 7.08469 7.07436 6.75048L0.67953 1.89429C0.554999 1.79936 0.382499 1.78113 0.237617 1.84453C0.166548 1.87622 0.106528 1.92601 0.0644843 1.98817C0.0224401 2.05034 8.53956e-05 2.12233 0 2.19584V9.33328C0 10.1912 0.747889 10.8888 1.66668 10.8888H9.58334C9.63807 10.8889 9.69227 10.8788 9.74284 10.8593C9.79341 10.8398 9.83936 10.8111 9.87806 10.775C9.91676 10.7389 9.94745 10.696 9.96838 10.6488C9.9893 10.6016 10.0001 10.551 10 10.4999V8.94439C10 8.58134 10.1766 8.24559 10.4834 8.02305C10.5406 7.98169 10.5853 7.92711 10.613 7.8647C10.6407 7.8023 10.6504 7.73423 10.6413 7.66722C10.5924 7.3076 10.7226 6.95403 10.9977 6.69729Z" fill="white"/>
<path d="M19.6842 8.5673L18.8859 8.38082L19.309 7.72227C19.3568 7.6479 19.3766 7.56075 19.3653 7.47467C19.3539 7.38858 19.3121 7.30852 19.2464 7.24719L18.068 6.14735C17.9321 6.01975 17.7221 5.99733 17.5585 6.08887L16.8538 6.48383L16.6544 5.73869C16.6317 5.65459 16.5796 5.57996 16.5064 5.52664C16.4331 5.47332 16.3428 5.44437 16.2499 5.44437H14.5833C14.4903 5.44436 14.4001 5.47331 14.3268 5.52664C14.2535 5.57996 14.2014 5.65459 14.1788 5.73869L13.9794 6.48383L13.2747 6.08887C13.1111 5.99736 12.9011 6.02128 12.7652 6.14735L11.5868 7.24719C11.5211 7.30852 11.4792 7.38858 11.4679 7.47467C11.4565 7.56075 11.4763 7.6479 11.5242 7.72227L11.9473 8.38082L11.149 8.5673C11.0588 8.58828 10.9788 8.6368 10.9215 8.70513C10.8643 8.77347 10.8332 8.8577 10.8332 8.94442V10.4999C10.8332 10.6784 10.9634 10.8338 11.149 10.8771L11.9473 11.0636L11.5242 11.7221C11.4763 11.7965 11.4565 11.8836 11.4679 11.9697C11.4792 12.0558 11.5211 12.1359 11.5868 12.1972L12.7652 13.297C12.9011 13.4239 13.1111 13.4463 13.2747 13.3555L13.9794 12.9605L14.1788 13.7057C14.2015 13.7898 14.2535 13.8644 14.3268 13.9177C14.4001 13.971 14.4903 14 14.5833 14H16.25C16.4412 14 16.6081 13.8785 16.6544 13.7057L16.8538 12.9605L17.5586 13.3555C17.7222 13.4463 17.9321 13.4239 18.068 13.297L19.2464 12.1972C19.3121 12.1359 19.354 12.0558 19.3653 11.9697C19.3767 11.8836 19.3569 11.7965 19.3091 11.7221L18.8859 11.0636L19.6843 10.8771C19.7744 10.8561 19.8545 10.8076 19.9117 10.7392C19.9689 10.6709 20 10.5867 20 10.4999V8.94439C20 8.85766 19.9689 8.77345 19.9116 8.70512C19.8544 8.63679 19.7744 8.58828 19.6842 8.5673ZM15.4166 11.6666C14.2676 11.6666 13.3333 10.7943 13.3333 9.72218C13.3333 8.65009 14.2676 7.77776 15.4166 7.77776C16.5657 7.77776 17.5 8.65006 17.5 9.72218C17.5 10.7943 16.5657 11.6666 15.4166 11.6666Z" fill="white"/>
</svg>
