<svg width="18" height="17" viewBox="0 0 18 17" fill="none" xmlns="http://www.w3.org/2000/svg">
<path fill-rule="evenodd" clip-rule="evenodd" d="M10.3183 4.41308C10.3183 5.00424 9.85065 5.49701 9.23599 5.59916V5.97512C9.23599 6.09981 9.13027 6.20047 9.00019 6.20047C8.8701 6.20047 8.76439 6.09981 8.76439 5.97512V5.59916C8.14973 5.49701 7.68205 5.00424 7.68205 4.41308C7.68205 4.28876 7.78738 4.18773 7.91786 4.18773C8.04794 4.18773 8.15366 4.28876 8.15366 4.41308C8.15366 4.8296 8.5333 5.168 9.00019 5.168C9.46708 5.168 9.84672 4.8296 9.84672 4.41308C9.84672 3.96839 9.35271 3.7468 8.93849 3.63938C8.12811 3.42943 7.68205 3.00014 7.68205 2.43076C7.68205 1.8396 8.14973 1.34683 8.76439 1.24468V0.868344C8.76439 0.744026 8.8701 0.642995 9.00019 0.642995C9.13027 0.642995 9.23599 0.744026 9.23599 0.868344V1.2443C9.85065 1.34646 10.3183 1.83922 10.3183 2.43039C10.3183 2.5547 10.213 2.65574 10.0825 2.65574C9.95244 2.65574 9.84672 2.5547 9.84672 2.43039C9.84672 2.01424 9.46708 1.67547 9.00019 1.67547C8.5333 1.67547 8.15366 2.01424 8.15366 2.43039C8.15366 2.87507 8.64766 3.09667 9.06189 3.20408C9.87226 3.41441 10.3183 3.8437 10.3183 4.41308ZM8.51561 14.6289L7.90135 15.7308C7.61406 16.3641 7.79524 16.5643 8.03419 16.6859C8.29828 16.8204 8.62762 16.7243 8.76832 16.4719L9.52052 15.1228C9.58812 15.0011 9.60227 14.861 9.55943 14.728C9.51699 14.5947 9.42385 14.4858 9.29651 14.4212C9.03949 14.2901 8.62566 14.4317 8.51561 14.6289ZM7.38494 13.4916C7.38534 13.4913 7.38534 13.4913 7.38534 13.4909L7.44822 13.3782C7.54607 13.2032 7.73432 13.1033 7.92847 13.1033C8.01453 13.1033 8.10178 13.1228 8.18274 13.1641C8.31007 13.2287 8.40361 13.338 8.44605 13.471C8.4885 13.6039 8.47435 13.7444 8.40675 13.8661L8.09982 14.4167C8.09942 14.4167 8.09942 14.4171 8.09942 14.4171L7.15621 16.1094C7.08862 16.2311 6.97425 16.3201 6.83513 16.3607C6.69601 16.4013 6.54902 16.3881 6.42169 16.3231C6.15759 16.1887 6.05738 15.8739 6.19807 15.6215L7.38494 13.4916ZM5.86245 13.0191L4.83199 14.864C4.82688 14.8745 4.80841 14.9151 4.74278 15.0694L4.73649 15.0837C4.63274 15.3267 4.7416 15.614 4.98408 15.7376C5.11141 15.8022 5.25801 15.8157 5.39752 15.7752C5.53665 15.7346 5.65062 15.6452 5.71821 15.5235L5.72647 15.5277C5.74219 15.4878 5.76026 15.4484 5.78188 15.4101L6.96914 13.2798C7.10945 13.0274 7.00884 12.7127 6.74513 12.5782C6.50147 12.4546 6.191 12.529 6.03812 12.7484C6.02397 12.7694 5.88642 12.9801 5.86284 13.0184C5.86284 13.0188 5.86245 13.0188 5.86245 13.0191ZM4.4889 12.3183C4.58636 12.1433 4.77422 12.0438 4.96836 12.0438C5.05482 12.0438 5.14207 12.0633 5.22342 12.105C5.35036 12.17 5.4439 12.2789 5.48595 12.4118C5.52839 12.5444 5.51424 12.6841 5.44743 12.8051C5.44704 12.8058 5.44665 12.8066 5.44625 12.8069L4.41383 14.6552C4.27274 14.9076 3.94341 15.0033 3.67931 14.8685C3.41521 14.7337 3.31499 14.4189 3.45608 14.1665L4.4889 12.3183ZM1.8876 12.4276L4.53488 7.96645C4.57614 7.89622 4.58675 7.81434 4.56396 7.73585C4.54117 7.65735 4.4885 7.592 4.41501 7.55256L3.12164 6.85135C3.07443 6.82574 3.02108 6.81228 2.96679 6.81229C2.9381 6.81229 2.90902 6.81605 2.88072 6.82356C2.79819 6.84534 2.7302 6.89605 2.68855 6.9659L0.0412717 11.4278C-0.0451891 11.5732 0.00865239 11.7591 0.161138 11.8417L1.45412 12.5425C1.60661 12.6248 1.80114 12.5733 1.8876 12.4276ZM13.2179 7.76026L16.1776 12.0385C16.2739 12.1782 16.4716 12.2165 16.6178 12.1241L17.8581 11.3407C17.9285 11.2964 17.9764 11.2276 17.9933 11.148C18.0106 11.068 17.9941 10.9869 17.9477 10.92L14.988 6.6414C14.9416 6.57417 14.8701 6.52835 14.7864 6.5122C14.7648 6.5077 14.7428 6.50582 14.7215 6.50582C14.6598 6.50582 14.5997 6.52272 14.5478 6.55577L13.3075 7.33923C13.2372 7.38355 13.1892 7.45228 13.1719 7.53191C13.155 7.6119 13.1711 7.69303 13.2179 7.76026ZM10.4563 8.41001L11.717 8.72175C11.9049 8.76832 12.0857 8.76381 12.2708 8.7086C12.4229 8.66316 12.6072 8.60344 12.7856 8.54597C12.8988 8.50917 13.0139 8.47198 13.1212 8.43818L15.526 11.9146C15.5677 12.049 15.502 12.1771 15.4376 12.2624C15.2674 12.4877 14.9365 12.6481 14.6319 12.6582L12.5156 11.3707L9.90449 9.74971C9.86149 9.72286 9.81048 9.71019 9.75924 9.71365C9.70801 9.71711 9.65936 9.7365 9.62074 9.76887C9.34446 9.99985 9.0894 10.0457 8.79425 9.91797C8.70386 9.87891 8.59775 9.89807 8.52858 9.96567C8.44212 10.0502 8.36392 10.1317 8.28885 10.2106C7.95362 10.5621 7.73197 10.7942 7.22971 10.7991H7.2246C7.06661 10.7991 6.93731 10.7262 6.86068 10.5933C6.78286 10.4592 6.78797 10.3138 6.87482 10.185C7.10159 9.84811 7.34171 9.5807 7.58891 9.3899C7.59009 9.38915 7.59127 9.38803 7.59284 9.3869C8.36981 8.76231 9.63764 8.2072 10.4563 8.41001ZM5.91432 9.05601C5.94458 9.06578 5.97642 9.07029 6.00825 9.06803C6.40322 9.04212 6.78325 9.06878 7.15975 9.14953C6.9212 9.35761 6.69247 9.62277 6.47789 9.94163C6.29829 10.2087 6.28728 10.5339 6.44763 10.8119C6.60679 11.0868 6.89683 11.2502 7.22499 11.2502H7.23482C7.94222 11.243 8.27981 10.8892 8.63745 10.5148C8.67714 10.4727 8.71762 10.4303 8.75928 10.3874C9.11652 10.4949 9.46158 10.437 9.78895 10.2158L12.2605 11.7504L14.4225 13.065C14.5565 13.1735 14.6818 13.3376 14.5478 13.5194C14.4209 13.6922 14.1257 13.7868 13.8888 13.6516C13.5272 13.4458 13.157 13.2426 12.799 13.0462C12.6178 12.9467 12.4362 12.8471 12.2554 12.7469C12.2286 12.732 12.199 12.7224 12.1683 12.7185C12.1376 12.7146 12.1064 12.7165 12.0765 12.7242C12.0465 12.7318 12.0185 12.745 11.9939 12.763C11.9693 12.781 11.9487 12.8035 11.9332 12.8291C11.8679 12.9365 11.9061 13.0747 12.0189 13.1371C12.2004 13.2374 12.3824 13.3373 12.5643 13.4372C12.8811 13.6111 13.2081 13.7902 13.5284 13.9716C13.8326 14.1977 13.7563 14.4231 13.684 14.5372C13.5264 14.7851 13.1267 14.9455 12.6913 14.7607L11.37 13.9344C11.3176 13.9017 11.2538 13.8902 11.1926 13.9025C11.1313 13.9148 11.0777 13.9497 11.0434 13.9998C11.0093 14.0498 10.9973 14.1107 11.0101 14.1692C11.0229 14.2276 11.0595 14.2788 11.1118 14.3115L12.4402 15.1423C12.7235 15.3564 12.5667 15.6328 12.5113 15.7132C12.3564 15.9374 11.9556 16.1797 11.482 15.9318L10.6481 15.3894C10.6225 15.3728 10.5937 15.3611 10.5633 15.355C10.533 15.349 10.5017 15.3487 10.4713 15.3542C10.4409 15.3597 10.4119 15.3709 10.3859 15.3871C10.36 15.4034 10.3377 15.4243 10.3203 15.4488C10.2852 15.4983 10.272 15.559 10.2838 15.6177C10.2955 15.6765 10.3311 15.7284 10.3828 15.762L11.2195 16.3062C11.4101 16.4486 11.4494 16.5951 11.3366 16.7423C11.1609 16.9718 10.6571 17.1378 10.2059 16.8377L10.1709 16.8144C9.81017 16.574 9.55786 16.411 9.39201 16.3119L9.93672 15.335C10.0637 15.1074 10.09 14.8452 10.0106 14.597C9.93161 14.3487 9.75672 14.1451 9.51817 14.0234C9.33267 13.9292 9.10669 13.9048 8.887 13.9367C9.04617 13.4946 8.85006 12.9936 8.40439 12.7668C8.09942 12.6116 7.74808 12.6207 7.46197 12.7615C7.3873 12.5208 7.21634 12.3078 6.96679 12.1805C6.62409 12.0062 6.22322 12.0363 5.92061 12.2331C5.83533 12.0066 5.6683 11.821 5.44547 11.7072C4.95186 11.4556 4.33602 11.6344 4.07271 12.1057L3.55748 13.0282C3.19591 12.6669 2.90981 12.31 2.70505 11.9641L4.67518 8.644L5.91432 9.05601ZM5.41992 3.42155C5.41992 5.30847 7.02613 6.84309 9.00019 6.84309C10.9742 6.84309 12.5805 5.30847 12.5805 3.42155C12.5805 1.535 10.9742 0 9.00019 0C7.02613 0.000375581 5.41992 1.53538 5.41992 3.42155Z" fill="white"/>
</svg>
