<svg width="21" height="19" viewBox="0 0 21 19" fill="none" xmlns="http://www.w3.org/2000/svg">
<path d="M4.21311 19C3.12781 19.0001 2.08599 18.577 1.3125 17.822L1.22719 17.7374C0.838565 17.3614 0.529774 16.9119 0.319015 16.4157C0.108255 15.9194 -0.000209797 15.3863 1.21262e-05 14.8478C-0.00136128 14.2648 0.113941 13.6874 0.339238 13.1489C0.564535 12.6104 0.895347 12.1217 1.3125 11.7109L11.4843 1.73397C12.5178 0.666809 13.9326 0.044948 15.424 0.00234228C16.9154 -0.0402634 18.364 0.499795 19.4577 1.50618C19.951 1.99416 20.3414 2.57463 20.6061 3.21375C20.8709 3.85288 21.0048 4.53788 20.9999 5.22882C20.994 6.0005 20.8345 6.76342 20.5304 7.47375C20.2263 8.18408 19.7837 8.82782 19.228 9.36799L10.0865 18.3492C10.0297 18.425 9.9569 18.4876 9.87321 18.5327C9.78953 18.5778 9.69694 18.6043 9.60189 18.6104C9.50684 18.6164 9.41159 18.6019 9.32278 18.5678C9.23396 18.5337 9.1537 18.4808 9.08757 18.4128C9.02144 18.3448 8.97102 18.2634 8.93981 18.1741C8.90861 18.0849 8.89737 17.99 8.90687 17.896C8.91638 17.802 8.9464 17.7112 8.99485 17.6299C9.0433 17.5485 9.10902 17.4786 9.18745 17.425L18.3027 8.44383C18.7356 8.02476 19.0808 7.52502 19.3184 6.9733C19.556 6.42157 19.6814 5.82874 19.6874 5.22882C19.6921 4.70964 19.5924 4.19472 19.3941 3.71421C19.1958 3.23369 18.9028 2.79722 18.5324 2.43033C17.6844 1.66424 16.5671 1.25889 15.4208 1.30149C14.2745 1.34409 13.1909 1.83123 12.4031 2.65812L2.26406 12.6351C1.96528 12.9228 1.72726 13.2666 1.56388 13.6465C1.40051 14.0264 1.31506 14.4348 1.3125 14.8478C1.3111 15.2105 1.38231 15.5698 1.52199 15.9049C1.66168 16.2401 1.86707 16.5444 2.12625 16.8003L2.21156 16.8849C2.79874 17.4211 3.57475 17.7072 4.37254 17.6817C5.17033 17.6561 5.92611 17.3209 6.47716 16.7482L15.238 8.15748C15.4037 7.99135 15.5343 7.79412 15.6222 7.57732C15.7101 7.36053 15.7535 7.12853 15.7499 6.8949C15.7513 6.69198 15.7121 6.4908 15.6343 6.30309C15.5566 6.11537 15.4419 5.94488 15.2971 5.80154C14.9657 5.50015 14.5281 5.3401 14.0787 5.35593C13.6293 5.37176 13.2043 5.5622 12.8952 5.88614L6.85778 11.8215C6.73421 11.9432 6.56695 12.0113 6.39281 12.0106C6.21866 12.01 6.05189 11.9408 5.92919 11.8183C5.80649 11.6957 5.7379 11.5299 5.73852 11.3572C5.73913 11.1845 5.8089 11.0191 5.93247 10.8974L11.9962 4.94247C12.552 4.37777 13.3094 4.05241 14.1049 4.03659C14.9005 4.02076 15.6704 4.31573 16.2487 4.85786C16.5146 5.12632 16.7236 5.44488 16.8633 5.79474C17.0031 6.1446 17.0708 6.51868 17.0624 6.8949C17.0617 7.30005 16.9795 7.70098 16.8206 8.07423C16.6617 8.44747 16.4294 8.78553 16.1371 9.06861L7.40246 17.6854C6.55584 18.5237 5.40947 18.9962 4.21311 19Z" fill="black"/>
</svg>
