<svg width="18" height="12" viewBox="0 0 18 12" fill="none" xmlns="http://www.w3.org/2000/svg">
<path d="M14.068 9.62598C13.9941 9.62595 13.9209 9.64214 13.8526 9.67363C13.7843 9.70512 13.7223 9.75129 13.67 9.8095C13.6178 9.86772 13.5763 9.93683 13.5481 10.0129C13.5198 10.089 13.5053 10.1705 13.5053 10.2528C13.5053 10.4952 13.3795 10.7461 13.1678 10.7461H1.52713C1.31666 10.7461 1.12541 10.511 1.12541 10.2528V1.97573L6.05964 7.49393C6.41473 7.88949 6.88068 8.08659 7.34725 8.08659C7.81382 8.08659 8.28039 7.88881 8.63588 7.49348L13.5053 2.04819V2.91085C13.5053 3.0771 13.5646 3.23653 13.6701 3.35409C13.7756 3.47164 13.9187 3.53768 14.068 3.53768C14.2172 3.53768 14.3603 3.47164 14.4659 3.35409C14.5714 3.23653 14.6307 3.0771 14.6307 2.91085V1.70983C14.6307 0.751239 13.9882 5.07568e-08 13.1678 5.07568e-08H1.52713C0.685225 -0.000227805 0 0.766733 0 1.7096V10.2528C0 11.1998 0.699543 12 1.52713 12H13.168C13.9884 12 14.6309 11.2324 14.6309 10.2528C14.6308 10.0866 14.5714 9.92716 14.4659 9.80962C14.3603 9.69209 14.2172 9.62604 14.068 9.62598ZM7.83918 6.60735C7.70888 6.75242 7.53222 6.83398 7.34799 6.8341C7.16376 6.83423 6.98702 6.75293 6.85655 6.60803L2.06856 1.25343H12.6266L7.83918 6.60735Z" fill="white"/>
<path d="M17.8351 6.44762L16.0909 4.5047C16.0387 4.44648 15.9767 4.4003 15.9084 4.36879C15.8401 4.33729 15.767 4.32107 15.6931 4.32107C15.6192 4.32107 15.546 4.33729 15.4778 4.36879C15.4095 4.4003 15.3475 4.44648 15.2953 4.5047C15.243 4.56289 15.2015 4.63198 15.1732 4.70802C15.145 4.78406 15.1304 4.86557 15.1304 4.94788C15.1304 5.03019 15.145 5.11169 15.1732 5.18774C15.2015 5.26378 15.243 5.33287 15.2953 5.39106L16.0756 6.26033H12.4639C12.3147 6.26033 12.1716 6.32637 12.0661 6.44392C11.9605 6.56147 11.9012 6.72091 11.9012 6.88716C11.9012 7.0534 11.9605 7.21284 12.0661 7.33039C12.1716 7.44794 12.3147 7.51399 12.4639 7.51399H16.1173L15.337 8.38325C15.2582 8.47087 15.2045 8.58256 15.1828 8.70418C15.161 8.82579 15.1721 8.95187 15.2147 9.06643C15.2573 9.181 15.3295 9.27892 15.4221 9.34778C15.5147 9.41664 15.6235 9.45335 15.7348 9.45326C15.8788 9.45326 16.0228 9.39197 16.1327 9.26961L17.8351 7.37385C18.055 7.12891 18.055 6.69257 17.8351 6.44762Z" fill="white"/>
</svg>
