<svg width="25" height="18" viewBox="0 0 25 18" fill="none" xmlns="http://www.w3.org/2000/svg">
<path d="M24.4675 17.4038C24.4676 17.1717 24.4673 16.9396 24.4669 16.7075V16.7058C24.4654 15.8347 24.4624 14.9636 24.4681 14.0926C24.4793 12.3809 24.5026 10.6693 24.5131 8.95751L24.5143 8.76313C24.5164 8.37537 24.4908 7.98674 24.4565 7.59892C24.4308 7.30724 24.3175 7.22986 23.8685 7.1799C23.671 7.15792 23.4714 7.13881 23.2716 7.12596C23.153 7.1182 23.0342 7.11298 22.9154 7.11029H22.9144C22.7909 7.10766 22.6675 7.10515 22.5439 7.10275L22.4747 7.10141C22.3543 7.09907 22.234 7.09685 22.1137 7.09469L22.0599 7.09375C21.0106 7.075 19.9613 7.0612 18.9122 7.03847C17.2027 7.00148 15.4934 6.95355 13.7839 6.91422C12.644 6.88798 11.504 6.86706 10.3641 6.84649C9.97521 6.83948 9.58603 6.8476 9.19745 6.83673C8.37757 6.81382 7.55793 6.78442 6.73835 6.75497C6.05777 6.73054 5.37761 6.69489 4.69685 6.67759C4.59471 6.67499 4.49257 6.67254 4.39043 6.67023H4.39025C4.23571 6.66672 4.08117 6.66351 3.92657 6.66076L3.90812 6.66041C3.83509 6.65913 3.76212 6.65796 3.68909 6.65685L3.66358 6.6565C3.58995 6.65544 3.51627 6.65445 3.44265 6.65363L3.43351 6.65352C3.36133 6.65271 3.28916 6.65205 3.21697 6.65153L3.19639 6.65135C3.12603 6.65084 3.05567 6.65047 2.98531 6.65024L2.94793 6.65013C2.8787 6.64995 2.80953 6.64983 2.74029 6.64989L2.70689 6.64995C2.63464 6.65007 2.56244 6.6503 2.49024 6.65077C2.35397 6.65159 2.2174 6.66415 2.08172 6.68198C1.94605 6.6998 1.81132 6.723 1.67867 6.74509C1.59359 6.75929 1.52122 6.78109 1.46231 6.81049C1.45697 6.81318 1.45169 6.81592 1.44659 6.81873C1.41755 6.83443 1.39063 6.85366 1.36644 6.87594C1.35167 6.8898 1.33839 6.90511 1.32681 6.92164C1.31834 6.93379 1.31088 6.94659 1.3045 6.95992C1.28926 6.99223 1.28016 7.02701 1.27763 7.06255C1.27467 7.09914 1.27121 7.13568 1.26724 7.17218C1.25935 7.24523 1.24974 7.31823 1.23995 7.39116C1.23503 7.42763 1.23011 7.4641 1.2253 7.50062C1.2205 7.53709 1.21581 7.57356 1.21142 7.61008C1.19831 7.71954 1.18805 7.82906 1.18567 7.93882C1.18463 7.98713 1.18374 8.03544 1.183 8.08375L1.18253 8.11934C1.18199 8.15692 1.18146 8.19456 1.1811 8.23213L1.18081 8.26346C1.18039 8.30396 1.1801 8.34446 1.17986 8.38502L1.17974 8.40331C1.17648 8.96423 1.18502 9.52544 1.1731 10.0862C1.13566 11.8488 1.09289 13.6112 1.05059 15.3737V15.3749C1.03783 15.9055 1.02514 16.4361 1.01268 16.9666C1.01179 17.0044 1.0125 17.0397 1.01505 17.0727C1.01588 17.0838 1.01695 17.0945 1.01826 17.105C1.02205 17.1366 1.02781 17.1659 1.0357 17.1932C1.04359 17.2205 1.05361 17.2458 1.06607 17.2691C1.07637 17.2884 1.08849 17.3066 1.10226 17.3237C1.1216 17.3474 1.14444 17.3688 1.17114 17.388C1.18259 17.3963 1.19475 17.4042 1.20768 17.4116C1.22061 17.4191 1.23426 17.4263 1.24868 17.4331C1.27422 17.4451 1.30049 17.4555 1.32734 17.4642C1.44682 17.5041 1.60647 17.529 1.81618 17.5459C1.83689 17.5476 1.85771 17.5485 1.87853 17.5492C1.89942 17.55 1.9203 17.5504 1.94112 17.5512L1.94391 17.5513L2.62562 17.5768C3.10621 17.5953 3.58675 17.6142 4.06735 17.6313H4.06746C4.42852 17.6441 4.78957 17.6559 5.15069 17.6656C7.55538 17.7301 9.96037 17.7858 12.3652 17.845L12.3653 17.8422C13.2134 17.8631 14.0615 17.8911 14.9096 17.9035C17.3423 17.9388 19.7751 17.9702 22.2079 17.9978C22.4058 18.0001 22.6037 18.0006 22.8015 17.9993C23.1314 17.9974 23.4611 17.991 23.79 17.9815C23.7988 17.9813 23.8075 17.9809 23.8161 17.9806L23.8226 17.9803L23.8461 17.9792L23.8481 17.979C23.8582 17.9784 23.8684 17.9778 23.8785 17.9771C23.886 17.9766 23.8932 17.9761 23.9005 17.9754L23.903 17.9752C23.911 17.9745 23.9191 17.9738 23.9269 17.973L23.9311 17.9726L23.9525 17.9703L23.9547 17.97L23.9803 17.9668L24.0017 17.9637L24.0034 17.9635C24.011 17.9623 24.0186 17.961 24.0261 17.9598L24.0264 17.9597C24.0337 17.9584 24.041 17.9571 24.0481 17.9557L24.0492 17.9554C24.0638 17.9526 24.078 17.9494 24.0917 17.9461L24.0922 17.946C24.106 17.9426 24.1195 17.9389 24.1324 17.935L24.1326 17.935C24.3258 17.877 24.4228 17.764 24.4573 17.5846C24.4685 17.525 24.4675 17.4642 24.4675 17.4038Z" fill="#66CC99"/>
<path d="M21.2286 16.196C21.3677 15.9487 21.5542 15.7454 21.7915 15.5863C22.0268 15.4287 22.2855 15.3269 22.5672 15.2982C22.7573 15.2788 22.9507 15.2792 23.1421 15.2858C23.1808 15.2871 23.2191 15.2902 23.257 15.2948C23.2551 14.8002 23.2538 14.3055 23.2563 13.811C23.2628 12.5206 23.2782 11.2304 23.2858 9.94008C23.1355 9.93944 22.9855 9.92915 22.8367 9.90081C22.4903 9.83495 22.1951 9.67265 21.934 9.44175C21.6594 9.19893 21.4532 8.91111 21.3346 8.56712C21.2712 8.38338 21.2359 8.20168 21.2294 8.02221C20.2443 8.00369 19.259 7.99013 18.274 7.96856C16.7447 7.93513 15.2154 7.89265 13.6861 7.85723C12.6664 7.83362 11.6466 7.81445 10.6267 7.79552C10.2788 7.78909 9.93071 7.79517 9.58307 7.78552C8.84963 7.76524 8.11631 7.73953 7.3831 7.71382C6.77425 7.69249 6.16569 7.66186 5.55671 7.64643C5.17679 7.63679 4.79657 7.62896 4.41653 7.6244C4.4069 7.72587 4.38834 7.82631 4.36107 7.92461C4.33028 8.0363 4.29082 8.1457 4.25535 8.25615C4.1103 8.55841 3.94104 8.84191 3.67906 9.06095C3.41927 9.27812 3.12004 9.4054 2.77808 9.42235C2.65647 9.42837 2.53479 9.43094 2.41341 9.42586C2.4146 9.77031 2.41745 10.1148 2.41027 10.459C2.38025 11.8968 2.34554 13.3344 2.31119 14.772C2.33653 14.7727 2.3618 14.7734 2.38707 14.7742C2.64454 14.7831 2.88327 14.8688 3.11244 14.9801C3.19734 15.0214 3.28016 15.0669 3.36398 15.1103C3.51271 15.1871 3.64697 15.2828 3.75381 15.4115C3.79409 15.4601 3.832 15.5119 3.86226 15.5669C3.94264 15.7131 4.03424 15.8559 4.09238 16.0107C4.17242 16.2221 4.20526 16.448 4.18867 16.6731C4.78619 16.6954 5.38372 16.7172 5.98142 16.7332C8.13274 16.7906 10.2842 16.8406 12.4357 16.8936L12.4358 16.8913C13.1945 16.91 13.9532 16.9346 14.7119 16.9462C16.8072 16.9783 18.9024 17.007 20.9976 17.0333C20.9996 16.7481 21.0752 16.4687 21.2286 16.196Z" fill="#339966"/>
<path d="M6.64913 12.5363C6.57628 12.6882 6.49126 12.8306 6.35962 12.9406C6.2291 13.0497 6.07877 13.1137 5.90697 13.1222C5.79004 13.128 5.67287 13.1276 5.55718 13.1056C5.38312 13.0725 5.23481 12.991 5.1037 12.875C4.96577 12.753 4.86219 12.6085 4.80257 12.4356C4.71571 12.1839 4.73321 11.9397 4.86515 11.7052C4.93337 11.5824 5.03032 11.4774 5.14796 11.3989C5.26613 11.3197 5.39612 11.2686 5.53761 11.2541C5.63312 11.2444 5.73024 11.2445 5.8264 11.2479C5.95573 11.2523 6.07569 11.2954 6.19084 11.3513C6.23349 11.3721 6.27508 11.3949 6.3172 11.4167C6.39195 11.4553 6.45935 11.5034 6.51304 11.5681C6.53327 11.5925 6.55231 11.6185 6.5675 11.6462C6.6079 11.7196 6.65387 11.7913 6.68312 11.8691C6.74458 12.0325 6.74868 12.2012 6.70222 12.3699C6.6868 12.4259 6.66699 12.4808 6.64913 12.5363ZM20.8392 12.886C20.7664 13.0378 20.6814 13.1802 20.5497 13.2903C20.4192 13.3994 20.2689 13.4633 20.0971 13.4719C19.9801 13.4777 19.863 13.4773 19.7472 13.4553C19.5732 13.4222 19.4249 13.3407 19.2937 13.2247C19.1558 13.1027 19.0522 12.9581 18.9926 12.7853C18.9058 12.5335 18.9233 12.2893 19.0552 12.0548C19.1234 11.9321 19.2204 11.8271 19.338 11.7485C19.4562 11.6694 19.5862 11.6182 19.7277 11.6038C19.8232 11.594 19.9203 11.5942 20.0165 11.5975C20.1458 11.602 20.2657 11.6451 20.3809 11.701C20.4235 11.7217 20.4651 11.7446 20.5072 11.7664C20.582 11.805 20.6494 11.853 20.7031 11.9177C20.7233 11.9421 20.7424 11.9682 20.7575 11.9958C20.7979 12.0692 20.8439 12.141 20.8732 12.2187C20.9346 12.3822 20.9387 12.5509 20.8923 12.7196C20.8769 12.7755 20.8571 12.8305 20.8392 12.886Z" fill="#66CC99"/>
<path d="M16.4545 13.8046C16.1919 14.4257 15.7694 14.9842 15.2037 15.3974C13.8309 16.3999 11.826 16.4009 10.4665 15.3733C10.4274 15.3435 10.3888 15.3131 10.3507 15.2821C8.35123 13.6451 8.37063 10.2808 10.7836 9.02834C12.3496 8.21548 14.5499 8.50044 15.7848 9.77236C16.8463 10.8657 17.0152 12.4781 16.4545 13.8046Z" fill="#66CC99"/>
<path d="M13.1187 14.6312C13.1154 14.7626 13.1124 14.9102 13.1076 15.0578C13.1037 15.1789 13.0873 15.1986 12.9622 15.1954C12.7947 15.1912 12.6273 15.1799 12.4602 15.1676C12.3608 15.1603 12.3358 15.1303 12.3369 15.0281C12.3384 14.8932 12.3433 14.7582 12.3469 14.6159C12.2886 14.6004 12.2404 14.5863 12.1915 14.5748C11.8054 14.4837 11.5233 14.2585 11.325 13.9246C11.2386 13.779 11.2134 13.6142 11.1744 13.4544C11.1546 13.3735 11.1883 13.3279 11.272 13.3023C11.3129 13.2896 11.3555 13.2832 11.3984 13.2835C11.5617 13.2857 11.7249 13.2927 11.8882 13.2963C11.9642 13.2979 12.0012 13.3369 12.0251 13.406C12.061 13.5097 12.1018 13.6125 12.1503 13.711C12.2393 13.8918 12.4034 13.9725 12.5944 13.9983C12.8075 14.0271 13.0233 14.0021 13.2108 13.9049C13.6593 13.6723 13.7146 13.2408 13.3747 12.8856C13.2287 12.7331 13.0299 12.6519 12.8331 12.5747C12.478 12.4354 12.1197 12.3002 11.8003 12.089C11.6829 12.011 11.5747 11.9202 11.478 11.8183C11.2595 11.5881 11.2124 11.3106 11.2972 11.0137C11.4326 10.5399 11.7508 10.2481 12.2347 10.1305C12.297 10.1153 12.3603 10.1045 12.4367 10.089C12.4407 10.0244 12.446 9.95849 12.4486 9.89245C12.4519 9.8121 12.4522 9.73156 12.4551 9.65121C12.4583 9.56255 12.4813 9.52813 12.5648 9.52684C12.7449 9.52404 12.9252 9.52982 13.1053 9.53438C13.1766 9.53619 13.2151 9.58125 13.2249 9.64612C13.2356 9.71707 13.242 9.78907 13.2439 9.86078C13.2459 9.94067 13.2407 10.0207 13.2386 10.1052C13.2999 10.1243 13.3477 10.1399 13.3959 10.1542C13.9675 10.3232 14.1903 10.74 14.3349 11.2688C14.3566 11.3483 14.323 11.3999 14.2417 11.4231C14.1973 11.4359 14.1486 11.4404 14.1022 11.4392C13.9905 11.4362 13.8791 11.4252 13.7673 11.422C13.6751 11.4194 13.6197 11.3835 13.5849 11.2936C13.5517 11.2083 13.4974 11.1298 13.4454 11.0527C13.2029 10.6929 12.5907 10.7334 12.3275 11.0158C12.1972 11.1557 12.1847 11.3661 12.3044 11.5166C12.3841 11.6177 12.4913 11.6944 12.6135 11.7378C12.7505 11.7868 12.8911 11.8261 13.0292 11.8722C13.2162 11.9345 13.4059 11.9905 13.5881 12.0646C14.1134 12.2784 14.4795 12.8207 14.449 13.3514C14.4355 13.5855 14.365 13.8011 14.2192 13.9877C14.0703 14.1782 13.8889 14.333 13.6609 14.4259C13.4911 14.4949 13.3179 14.5561 13.1187 14.6312Z" fill="white"/>
<path d="M24.4569 13.1193C24.2331 10.7222 24.6967 9.79924 24.2723 7.48303C24.2213 7.27691 23.66 7.09995 23.2032 7.10889C22.8827 7.11514 22.5575 7.12713 22.2369 7.15383C16.0032 7.67449 9.7716 8.22571 3.53276 8.68003C2.7578 8.75483 1.12706 7.30508 0.970974 6.56995C0.405246 3.90601 0.430045 9.00666 0.41201 9.90607C0.622852 11.6794 0.757521 13.4598 0.911411 15.2387C0.943981 15.6198 0.97655 16.001 1.00936 16.3821C1.0109 16.5416 1.12397 16.6669 1.28706 16.6923C1.56814 16.7528 1.99487 16.7066 2.32128 16.6845C2.92895 16.6408 3.53668 16.5985 4.14429 16.554C6.93846 16.3428 9.73061 16.1062 12.5238 15.8823L12.5236 15.8802C15.4532 15.6531 18.3784 15.3771 21.3049 15.1172C22.2197 15.0351 23.1363 14.9565 24.0476 14.8445C24.3397 14.8234 24.6166 14.7478 24.4569 13.1193Z" fill="#2B8958"/>
<path d="M24.3384 13.8274C24.3132 13.5966 24.2878 13.3659 24.2623 13.1351L24.2621 13.1334C24.1662 12.2675 24.0688 11.4016 23.98 10.5351C23.8055 8.83192 23.6431 7.12771 23.4679 5.42461L23.4479 5.23123C23.408 4.84546 23.3404 4.46179 23.2643 4.07976C23.2071 3.79246 23.0861 3.72742 22.6342 3.72502C22.4354 3.72397 22.2349 3.72595 22.0349 3.73419C21.916 3.7391 21.7972 3.74618 21.679 3.75611L21.6781 3.75617C21.555 3.76651 21.432 3.77703 21.3089 3.78767L21.2399 3.79363C21.12 3.80397 21.0001 3.81444 20.8802 3.8249L20.8266 3.82963C19.7813 3.92138 18.7366 4.01805 17.691 4.10582C15.9872 4.24889 14.2825 4.38114 12.5785 4.52187C11.4423 4.61572 10.3065 4.7149 9.17087 4.81437C8.78348 4.84832 8.39745 4.89735 8.00988 4.92745C7.19225 4.99098 6.37409 5.04796 5.556 5.10494C4.87666 5.15222 4.1965 5.18839 3.51781 5.2428C3.41601 5.25098 3.31415 5.25928 3.21235 5.2677H3.21217C3.0581 5.28044 2.90409 5.29353 2.75008 5.30709L2.73169 5.30872C2.65896 5.31515 2.58623 5.32164 2.51355 5.32824L2.48816 5.33058C2.41484 5.3373 2.34151 5.34408 2.26818 5.35098L2.25911 5.35185C2.18726 5.35863 2.11542 5.36559 2.04358 5.37266L2.02305 5.37464C1.95305 5.38154 1.88304 5.38861 1.81304 5.39574L1.77584 5.39954C1.70702 5.40661 1.63821 5.4138 1.56939 5.42116L1.53623 5.42473C1.46444 5.43244 1.3926 5.44027 1.32088 5.44834C1.18549 5.46348 1.05106 5.4903 0.918055 5.52233C0.785107 5.55435 0.653642 5.59152 0.524194 5.62746C0.441138 5.65055 0.37155 5.67982 0.316199 5.71524C0.311211 5.71842 0.306286 5.72169 0.301427 5.72506C0.274273 5.74371 0.249599 5.76564 0.227982 5.79034C0.214515 5.80606 0.203066 5.8226 0.193514 5.83995C0.186395 5.85299 0.180344 5.86643 0.175479 5.88039C0.163858 5.91414 0.158571 5.94969 0.159877 5.9853C0.160945 6.02194 0.161419 6.05864 0.161419 6.09534C0.161479 6.1688 0.159877 6.24238 0.158038 6.31596C0.157148 6.35278 0.156139 6.38954 0.155309 6.4263C0.154478 6.46306 0.153766 6.49982 0.153351 6.53658C0.152164 6.6468 0.153885 6.75678 0.163377 6.86613C0.171851 6.96356 0.180928 7.06095 0.190607 7.15827L0.193692 7.18942C0.197667 7.22975 0.20176 7.27007 0.205913 7.31034L0.207812 7.32851C0.265417 7.88657 0.334709 8.44369 0.383652 9.00245C0.537542 10.7589 0.686152 12.5158 0.835178 14.2726L0.835297 14.2737C0.880147 14.8026 0.925056 15.3315 0.970203 15.8604C0.973406 15.898 0.977974 15.9331 0.984085 15.9657C0.986102 15.9765 0.988356 15.9871 0.990729 15.9975C0.997967 16.0284 1.00687 16.057 1.01766 16.0833C1.02846 16.1096 1.04122 16.1336 1.05611 16.1556C1.0635 16.1664 1.0715 16.1769 1.08007 16.1869C1.10643 16.2174 1.13804 16.2431 1.17345 16.2628C1.18573 16.2698 1.19866 16.2764 1.21231 16.2824C1.22595 16.2885 1.24031 16.2942 1.25538 16.2994C1.27549 16.3064 1.29685 16.3126 1.31963 16.3182C1.32532 16.3196 1.33108 16.3209 1.33695 16.3222C1.46011 16.3493 1.62148 16.3572 1.83185 16.3519C1.85261 16.3514 1.87343 16.3502 1.89426 16.3487C1.91508 16.3472 1.9359 16.3455 1.95672 16.3441L1.95951 16.3439C2.03848 16.3384 2.1175 16.333 2.19652 16.3276L2.64004 16.2976C3.11986 16.2653 3.59968 16.2336 4.07939 16.2H4.07951C4.43985 16.1747 4.80013 16.1485 5.16024 16.1201C7.55817 15.9314 9.95545 15.7335 12.353 15.5395L12.3528 15.5367C13.1983 15.4682 14.0446 15.4069 14.8891 15.33C16.9334 15.1436 18.9774 14.9543 21.021 14.7625L21.0237 14.7623C21.4011 14.7269 21.7785 14.6914 22.1559 14.6558C22.3529 14.6372 22.5497 14.6169 22.7464 14.5949C23.0824 14.557 23.418 14.5153 23.753 14.4695L23.7594 14.4686L23.7827 14.465L23.7846 14.4647L23.8091 14.4605L23.8146 14.4595L23.8362 14.4556L23.8386 14.4551C23.8549 14.452 23.8711 14.4486 23.8872 14.4449C23.9033 14.4412 23.9194 14.4373 23.9354 14.4332L23.937 14.4328C23.9445 14.4308 23.9519 14.4287 23.9592 14.4266L23.9595 14.4266C23.9667 14.4245 23.9738 14.4224 23.9807 14.4203L23.9818 14.4199C23.9959 14.4155 24.0097 14.4109 24.023 14.4061L24.0235 14.4059C24.0369 14.4011 24.0498 14.3961 24.0623 14.3909L24.0624 14.3908C24.2483 14.3128 24.3326 14.1902 24.3473 14.0083C24.3524 13.9478 24.3449 13.8874 24.3384 13.8274Z" fill="#66CC99"/>
<path d="M20.987 12.9672C21.0985 12.7067 21.2619 12.4849 21.4807 12.3018C21.6975 12.1204 21.9437 11.9919 22.2207 11.9337C22.4076 11.8944 22.5999 11.8744 22.7909 11.8608C22.8293 11.8581 22.8677 11.8571 22.9061 11.8577C22.8506 11.3661 22.7958 10.8744 22.7446 10.3824C22.6111 9.09876 22.4865 7.81428 22.3542 6.5305C22.2047 6.54563 22.0545 6.55118 21.9035 6.53874C21.5519 6.50969 21.2407 6.37937 20.9561 6.17728C20.6568 5.96473 20.4206 5.70028 20.2653 5.37073C20.1824 5.1947 20.1276 5.0178 20.1016 4.84002C19.1201 4.92523 18.139 5.01546 17.1573 5.09763C15.6331 5.22527 14.1081 5.34396 12.5836 5.46967C11.5671 5.55347 10.5511 5.64172 9.53507 5.7302C9.18849 5.76042 8.84304 5.80308 8.49628 5.83008C7.7648 5.88706 7.03296 5.93866 6.30112 5.99026C5.6934 6.0331 5.08507 6.06671 4.47788 6.11545C4.09898 6.14559 3.7203 6.17828 3.34185 6.21351C3.34325 6.3154 3.33569 6.41721 3.31925 6.51781C3.30074 6.63213 3.27339 6.74504 3.25008 6.85859C3.13861 7.1744 3.00109 7.47409 2.76432 7.71943C2.52957 7.96272 2.24588 8.12074 1.90766 8.17358C1.78741 8.19234 1.66668 8.20776 1.54542 8.21548C1.58392 8.55783 1.62415 8.9 1.65434 9.24305C1.78035 10.6757 1.90173 12.1088 2.02347 13.5418C2.04874 13.5397 2.07395 13.5378 2.09916 13.536C2.3561 13.5177 2.60278 13.5778 2.84275 13.6643C2.93168 13.6964 3.01889 13.733 3.10699 13.7672C3.26319 13.828 3.40705 13.909 3.52725 14.0257C3.57257 14.0698 3.61588 14.1173 3.65195 14.1688C3.7477 14.3057 3.85431 14.4381 3.92888 14.5858C4.03137 14.7876 4.08851 15.0088 4.09641 15.2343C4.69293 15.1937 5.28939 15.1525 5.88543 15.1054C8.03064 14.9362 10.1753 14.7595 12.3202 14.5858L12.32 14.5835C13.0764 14.5222 13.8334 14.4669 14.5891 14.3986C16.6758 14.2101 18.7622 14.0182 20.8483 13.8238C20.8192 13.5403 20.864 13.2546 20.987 12.9672Z" fill="#339966"/>
<path d="M6.09414 10.8625C6.03814 11.0212 5.96908 11.1717 5.85013 11.295C5.73219 11.4172 5.58969 11.4966 5.41979 11.5231C5.30416 11.5412 5.18765 11.5531 5.07018 11.5434C4.89357 11.5288 4.73725 11.4634 4.59427 11.3618C4.44394 11.2551 4.32523 11.1222 4.24722 10.9567C4.13361 10.7155 4.12453 10.4708 4.23025 10.2238C4.28477 10.0946 4.36978 9.97996 4.47823 9.88953C4.58715 9.79836 4.71085 9.73384 4.84997 9.70462C4.94388 9.68487 5.04046 9.67482 5.13645 9.66804C5.26554 9.65886 5.38947 9.68902 5.51002 9.7325C5.55469 9.74863 5.59853 9.76698 5.64279 9.78422C5.72128 9.81473 5.79354 9.8554 5.85393 9.91407C5.87671 9.93622 5.89848 9.96007 5.91658 9.98596C5.96469 10.0547 6.0182 10.1212 6.0557 10.1954C6.13448 10.3514 6.15685 10.5188 6.12896 10.6913C6.11959 10.7488 6.10582 10.8055 6.09414 10.8625ZM20.2409 9.71713C20.1849 9.8758 20.1159 10.0263 19.9969 10.1496C19.879 10.2718 19.7365 10.3512 19.5666 10.3778C19.451 10.3958 19.3344 10.4077 19.217 10.398C19.0404 10.3834 18.884 10.318 18.7411 10.2165C18.5907 10.1097 18.472 9.97678 18.394 9.81128C18.2803 9.57009 18.2713 9.32546 18.3771 9.07842C18.4316 8.94916 18.5166 8.83457 18.625 8.74414C18.734 8.65297 18.8576 8.58845 18.9968 8.55923C19.0907 8.53948 19.1873 8.52942 19.2832 8.52265C19.4123 8.51347 19.5363 8.54363 19.6568 8.58711C19.7015 8.60324 19.7453 8.62159 19.7896 8.63883C19.8681 8.66933 19.9403 8.71001 20.0007 8.76868C20.0235 8.79083 20.0453 8.81468 20.0634 8.84057C20.1115 8.90929 20.165 8.97586 20.2025 9.05002C20.2813 9.20606 20.3036 9.37338 20.2758 9.54595C20.2664 9.60334 20.2527 9.66009 20.2409 9.71713Z" fill="#66CC99"/>
<path d="M15.9809 11.0919C15.7872 11.7371 15.4276 12.3368 14.91 12.8072C13.6538 13.9484 11.6604 14.1604 10.1973 13.2816C10.1552 13.2562 10.1135 13.23 10.0723 13.2032C7.90671 11.786 7.5612 8.43884 9.82452 6.9397C11.2935 5.96671 13.512 6.01855 14.8778 7.15319C16.0519 8.12858 16.3946 9.71397 15.9809 11.0919Z" fill="#66CC99"/>
<path d="M12.7538 12.2647C12.7647 12.3957 12.7777 12.5428 12.789 12.69C12.7983 12.8108 12.7841 12.8322 12.6594 12.8422C12.4924 12.8555 12.3247 12.862 12.1571 12.8673C12.0575 12.8705 12.0294 12.8433 12.0194 12.7416C12.0063 12.6073 11.9965 12.4726 11.9847 12.3307C11.9251 12.3215 11.8756 12.3126 11.8257 12.3063C11.4319 12.2563 11.1271 12.0621 10.8937 11.7509C10.7921 11.6152 10.7491 11.4541 10.6929 11.2993C10.6645 11.221 10.6931 11.172 10.7735 11.1378C10.8128 11.1209 10.8545 11.1101 10.8972 11.1058C11.0597 11.0907 11.2228 11.0806 11.3855 11.0669C11.4612 11.0606 11.5023 11.0955 11.5335 11.1616C11.5804 11.2609 11.6322 11.3589 11.6911 11.4517C11.7992 11.6221 11.9711 11.685 12.1638 11.6906C12.3788 11.6968 12.5907 11.6492 12.7666 11.5328C13.1873 11.2544 13.1955 10.8196 12.819 10.5022C12.6574 10.3659 12.4509 10.3062 12.2468 10.2501C11.8786 10.1488 11.5078 10.0521 11.1673 9.87574C11.0421 9.81059 10.9247 9.7317 10.8175 9.64057C10.5753 9.43468 10.4984 9.16375 10.5505 8.85956C10.6338 8.3742 10.9185 8.05062 11.3869 7.88271C11.4471 7.86109 11.509 7.84373 11.5832 7.82018C11.5802 7.7556 11.5783 7.68945 11.5738 7.62353C11.5683 7.54329 11.5599 7.46322 11.554 7.38298C11.5476 7.2945 11.5668 7.25786 11.6496 7.24781C11.8284 7.22607 12.0083 7.21286 12.1879 7.19842C12.2591 7.1927 12.3022 7.23349 12.319 7.29696C12.3374 7.36653 12.3514 7.43714 12.3611 7.5084C12.3718 7.58758 12.3753 7.66777 12.3823 7.75204C12.4453 7.76454 12.4946 7.77501 12.5441 7.78412C13.1307 7.89212 13.3975 8.28298 13.5985 8.79358C13.6287 8.87031 13.6008 8.92513 13.5226 8.95681C13.4797 8.97416 13.4319 8.98381 13.3856 8.98743C13.2742 8.9962 13.1622 8.99696 13.0508 9.00561C12.9588 9.01274 12.8999 8.98281 12.8555 8.89714C12.8132 8.81573 12.7507 8.74344 12.6907 8.67231C12.4105 8.34008 11.8062 8.44474 11.5752 8.75325C11.4608 8.90602 11.4712 9.11653 11.6065 9.25357C11.6967 9.3457 11.8116 9.41068 11.9379 9.44094C12.0794 9.47524 12.2233 9.49955 12.3657 9.53082C12.5583 9.57313 12.7531 9.60884 12.9422 9.66336C13.4877 9.82063 13.9106 10.3214 13.9378 10.8522C13.9498 11.0864 13.903 11.3082 13.7783 11.509C13.651 11.7141 13.4873 11.8871 13.2707 12.0034C13.1093 12.09 12.9437 12.1691 12.7538 12.2647Z" fill="white"/>
<path d="M24.5151 10.4762C23.8919 8.20309 23.5168 5.86374 22.8158 3.61422C22.7406 3.41557 22.6178 3.38565 22.1753 3.44701C21.8647 3.49009 21.5504 3.53929 21.2424 3.60264C15.2527 4.83564 9.26894 6.09873 3.26604 7.26657C2.52263 7.42985 0.758055 6.17868 0.514761 5.46722C-0.366874 2.8889 0.29324 7.94729 0.387805 8.84185C0.813643 10.5773 1.16645 12.3285 1.53777 14.0759C1.61691 14.4504 1.69611 14.8248 1.77549 15.1992C1.7969 15.3573 1.92232 15.4687 2.08386 15.4752C2.36441 15.5029 2.7731 15.408 3.08741 15.3485C3.67218 15.2354 4.25719 15.1235 4.84178 15.0096C7.52934 14.4789 10.2117 13.9233 12.8967 13.3801L12.8963 13.3781C15.7134 12.816 18.5201 12.206 21.3302 11.6117C22.2083 11.4251 23.0889 11.2418 23.96 11.0259C24.241 10.9714 24.6464 10.7981 24.5151 10.4762Z" fill="#2B8958"/>
<path d="M24.968 9.84272C24.9147 9.61664 24.8611 9.39061 24.8074 9.16462L24.807 9.16299C24.6054 8.31483 24.4023 7.46696 24.2076 6.61734C23.8251 4.9475 23.4544 3.2752 23.0712 1.60553L23.0277 1.41594C22.9407 1.03777 22.8265 0.664973 22.7039 0.294864C22.6118 0.0165075 22.4837 -0.033635 22.0348 0.0179102C21.8374 0.0405855 21.6386 0.0664749 21.441 0.0985007C21.3237 0.117386 21.2069 0.1388 21.0905 0.162728L21.0896 0.162903C20.9687 0.187858 20.8479 0.212987 20.727 0.238175L20.6593 0.252319C20.5415 0.276922 20.4238 0.301526 20.3061 0.326247L20.2535 0.337292C19.2272 0.553058 18.2019 0.773557 17.1748 0.985465C15.5012 1.33068 13.8252 1.66525 12.1511 2.00819C11.0348 2.23681 9.91962 2.47075 8.80454 2.70493C8.42414 2.78482 8.04695 2.87955 7.66597 2.95564C6.86217 3.11618 6.057 3.27035 5.25195 3.42446C4.58342 3.55244 3.91274 3.66944 3.24569 3.80444C3.14561 3.82472 3.04552 3.84506 2.9455 3.86557L2.94532 3.86563C2.79398 3.89666 2.6427 3.92805 2.49148 3.95984L2.47345 3.96364C2.40202 3.97866 2.33065 3.99379 2.25928 4.00905L2.23437 4.01436C2.16239 4.02972 2.09045 4.04523 2.01854 4.06088L2.00964 4.06281C1.93916 4.07812 1.86869 4.09361 1.79827 4.10915L1.77816 4.1136C1.70952 4.12879 1.64088 4.14416 1.5723 4.15959L1.53581 4.16783C1.46836 4.18308 1.4009 4.19845 1.33351 4.21394L1.301 4.22142C1.23064 4.23767 1.16034 4.25397 1.0901 4.27051C0.957566 4.30172 0.827406 4.34438 0.699382 4.39201C0.571358 4.43964 0.44541 4.49224 0.321301 4.54337C0.241686 4.57616 0.176191 4.6135 0.125586 4.65529C0.121039 4.65904 0.116569 4.66288 0.112179 4.6668C0.0874855 4.68854 0.065679 4.71326 0.0472769 4.74038C0.0358864 4.75762 0.026513 4.77539 0.019216 4.79374C0.0137695 4.80746 0.00944462 4.82159 0.00628292 4.83599C-0.00112584 4.87086 -0.00199039 4.90677 0.00373197 4.94194C0.00930856 4.97818 0.0142327 5.01459 0.0188007 5.051C0.0278775 5.12387 0.0353524 5.1971 0.0425307 5.27038C0.0461496 5.30703 0.0497093 5.34367 0.0533874 5.38025C0.0570656 5.41684 0.0609217 5.45342 0.0650152 5.48995C0.0774142 5.59947 0.0926014 5.70846 0.115501 5.81588C0.125586 5.86316 0.13585 5.91043 0.146172 5.95765L0.153885 5.99243C0.162012 6.02919 0.17014 6.06589 0.178386 6.10265L0.185327 6.13321C0.194226 6.17278 0.203243 6.21228 0.21232 6.25179L0.216414 6.26961C0.342183 6.81668 0.479403 7.36147 0.596689 7.9103C0.965338 9.63549 1.32871 11.3617 1.69261 13.0878L1.69285 13.089C1.80236 13.6087 1.91193 14.1283 2.02175 14.6479C2.02958 14.6849 2.03836 14.7191 2.0485 14.7507C2.05188 14.7613 2.05538 14.7715 2.059 14.7815C2.06998 14.8113 2.08232 14.8386 2.09626 14.8635C2.1102 14.8883 2.1258 14.9106 2.1433 14.9306C2.15775 14.9471 2.17374 14.9622 2.19106 14.9757C2.21532 14.9945 2.2425 15.0102 2.27293 15.023C2.28598 15.0285 2.29963 15.0335 2.31392 15.0379C2.32822 15.0423 2.34317 15.0462 2.35877 15.0496C2.38639 15.0556 2.41437 15.0599 2.44254 15.0625C2.56813 15.0747 2.72932 15.0633 2.93749 15.033C2.95802 15.03 2.97855 15.0262 2.99901 15.0223C3.01948 15.0184 3.03995 15.0142 3.06041 15.0103L3.06314 15.0098C3.14086 14.9949 3.21864 14.9801 3.29635 14.9653L3.73293 14.8826C4.20528 14.7934 4.67768 14.7046 5.14974 14.6141H5.14986C5.5045 14.5463 5.85883 14.4769 6.21285 14.4059C8.56997 13.9326 10.9253 13.4503 13.2814 12.9717L13.2808 12.9689C14.1116 12.8001 14.9442 12.6383 15.7731 12.4612C18.1507 11.953 20.5275 11.441 22.9035 10.9253C23.0968 10.8834 23.2897 10.8397 23.4821 10.7943C23.8026 10.7187 24.1222 10.6395 24.4408 10.5565C24.4589 10.5518 24.477 10.5468 24.4949 10.5417L24.4968 10.5412L24.5206 10.5341L24.526 10.5325L24.547 10.526L24.5493 10.5252C24.557 10.5227 24.5646 10.5202 24.5722 10.5177L24.5761 10.5164L24.5964 10.5094L24.5985 10.5086C24.606 10.506 24.6133 10.5033 24.6205 10.5005L24.6227 10.4997C24.6295 10.4971 24.6362 10.4945 24.6429 10.4919L24.6444 10.4913C24.6516 10.4884 24.6587 10.4855 24.6657 10.4826L24.6659 10.4825C24.6728 10.4796 24.6795 10.4766 24.6861 10.4737L24.6871 10.4732C24.7007 10.4672 24.7138 10.461 24.7264 10.4547L24.7268 10.4544C24.7395 10.4481 24.7517 10.4415 24.7634 10.4348L24.7636 10.4347C24.9386 10.3351 25.0071 10.2034 24.9994 10.021C24.9968 9.9606 24.9819 9.90151 24.968 9.84272Z" fill="#66CC99"/>
<path d="M21.5356 9.38863C21.6143 9.1167 21.7492 8.87703 21.9438 8.66922C22.1367 8.46321 22.3654 8.30635 22.6331 8.21554C22.8138 8.15423 23.0023 8.11145 23.1902 8.07516C23.2279 8.06789 23.266 8.06228 23.3042 8.05833C23.1882 7.57711 23.0743 7.09539 22.9625 6.61319C22.6723 5.35489 22.3908 4.09472 22.1016 2.83619C21.9551 2.86903 21.8067 2.89246 21.6553 2.89808C21.3027 2.91117 20.9778 2.81895 20.6705 2.65227C20.3472 2.47701 20.0802 2.2426 19.8856 1.93403C19.7817 1.76922 19.7055 1.60009 19.6579 1.42676C18.6941 1.62838 17.7314 1.83491 16.7669 2.03367C15.2696 2.34218 13.7703 2.64187 12.2725 2.94845C11.2738 3.15288 10.2761 3.36163 9.27837 3.57068C8.93802 3.64198 8.60034 3.72555 8.25952 3.79369C7.54043 3.93751 6.82028 4.07602 6.10019 4.21453C5.50219 4.32954 4.90247 4.43543 4.30571 4.55623C3.93331 4.63136 3.56143 4.70897 3.1901 4.78906C3.20398 4.88841 3.20891 4.9901 3.20505 5.09383C3.20078 5.20949 3.18749 5.32485 3.17829 5.44033C3.10645 5.76708 3.00678 6.08097 2.80193 6.35278C2.5988 6.62225 2.33664 6.813 2.00739 6.90575C1.89034 6.93871 1.77234 6.9684 1.65298 6.99055C1.73331 7.32577 1.81523 7.6607 1.88737 7.99761C2.18857 9.4047 2.48514 10.8127 2.78212 12.2207C2.80692 12.2157 2.83177 12.2108 2.85657 12.206C3.10942 12.1572 3.36161 12.1874 3.61042 12.2447C3.70261 12.2659 3.79368 12.2919 3.88533 12.3154C4.04789 12.357 4.20059 12.4203 4.33425 12.5218C4.38468 12.5601 4.4335 12.6022 4.47562 12.649C4.58751 12.7734 4.70954 12.8921 4.80179 13.0299C4.92834 13.2179 5.01225 13.4307 5.04782 13.6536C5.63496 13.5421 6.22198 13.4301 6.80782 13.3123C8.91649 12.8884 11.0236 12.4573 13.1314 12.0291L13.1309 12.0268C13.8742 11.8758 14.6189 11.7306 15.3606 11.5728C17.4087 11.1366 19.4562 10.6976 21.5031 10.2557C21.4395 9.97754 21.4489 9.68855 21.5356 9.38863Z" fill="#339966"/>
<path d="M6.49364 9.07556C6.45757 9.23972 6.4075 9.3974 6.30457 9.53391C6.20253 9.66932 6.07082 9.76511 5.90542 9.81169C5.79288 9.84342 5.67868 9.86913 5.56086 9.87352C5.38372 9.88006 5.22057 9.83378 5.06615 9.75003C4.90377 9.66196 4.76964 9.54426 4.67187 9.38921C4.52943 9.16334 4.49034 8.92157 4.56497 8.66378C4.60317 8.52896 4.67348 8.40506 4.77005 8.30238C4.86699 8.19888 4.98185 8.1201 5.11634 8.07446C5.20711 8.04366 5.30179 8.02215 5.39617 8.00398C5.52319 7.97943 5.64991 7.99463 5.77491 8.02344C5.82124 8.03413 5.86698 8.04711 5.91302 8.05891C5.99465 8.07984 6.07142 8.11163 6.13857 8.16265C6.16391 8.18187 6.18841 8.20303 6.20959 8.22652C6.26577 8.28906 6.32711 8.34867 6.37344 8.41786C6.47086 8.56338 6.51363 8.72678 6.5071 8.9014C6.50497 8.95961 6.49826 9.01759 6.49364 9.07556ZM20.3957 6.25138C20.3596 6.41554 20.3095 6.57322 20.2066 6.70974C20.1045 6.84515 19.9728 6.94093 19.8074 6.98751C19.6949 7.01924 19.5807 7.04496 19.4629 7.04934C19.2857 7.05588 19.1226 7.0096 18.9682 6.92585C18.8058 6.83778 18.6717 6.72008 18.5739 6.56504C18.4315 6.33916 18.3924 6.09739 18.467 5.8396C18.5052 5.70478 18.5755 5.58088 18.6721 5.4782C18.769 5.3747 18.8839 5.29592 19.0184 5.25028C19.1091 5.21948 19.2038 5.19798 19.2982 5.1798C19.4252 5.15526 19.5519 5.17045 19.6769 5.19926C19.7233 5.20996 19.769 5.22293 19.815 5.23474C19.8967 5.25566 19.9734 5.28745 20.0406 5.33847C20.0659 5.3577 20.0904 5.37885 20.1116 5.40235C20.1678 5.46488 20.2291 5.52449 20.2755 5.59368C20.3729 5.7392 20.4157 5.9026 20.4091 6.07723C20.4069 6.13543 20.4003 6.19341 20.3957 6.25138Z" fill="#66CC99"/>
<path d="M16.3359 8.12413C16.2229 8.78768 15.9397 9.42586 15.4836 9.95446C14.377 11.2371 12.4243 11.6853 10.864 10.9875C10.819 10.9672 10.7744 10.9462 10.7302 10.9245C8.40635 9.77598 7.65208 6.49467 9.71447 4.73664C11.053 3.59563 13.2616 3.38244 14.7568 4.3459C16.0421 5.17413 16.5772 6.70699 16.3359 8.12413Z" fill="#66CC99"/>
<path d="M13.2767 9.67318C13.3036 9.80198 13.3347 9.94639 13.3639 10.0912C13.388 10.21 13.3765 10.2329 13.254 10.2577C13.0899 10.2908 12.9242 10.3173 12.7586 10.3425C12.6601 10.3575 12.6288 10.3339 12.6065 10.2342C12.5769 10.1024 12.5506 9.96989 12.5215 9.83039C12.4612 9.82828 12.4109 9.82536 12.3607 9.82501C11.9637 9.82238 11.6372 9.66599 11.3673 9.38489C11.2496 9.2624 11.1872 9.10753 11.1124 8.96055C11.0746 8.88621 11.0969 8.8342 11.1726 8.7906C11.2095 8.76914 11.2496 8.75343 11.2914 8.74402C11.4509 8.70977 11.6115 8.6802 11.7713 8.6473C11.8458 8.63199 11.8908 8.66174 11.9299 8.72368C11.9887 8.81666 12.0521 8.90766 12.122 8.99281C12.2502 9.14908 12.4286 9.1911 12.6206 9.17362C12.8348 9.15416 13.0392 9.08164 13.1995 8.94512C13.5829 8.61861 13.5376 8.18596 13.1249 7.91579C12.9477 7.79984 12.7353 7.76513 12.5258 7.7338C12.1479 7.67723 11.7679 7.62545 11.4082 7.49098C11.2759 7.44126 11.1497 7.37693 11.0321 7.29923C10.7664 7.12373 10.6567 6.86396 10.6711 6.5558C10.6941 6.06408 10.9369 5.70893 11.3812 5.48638C11.4384 5.45775 11.4977 5.43308 11.5685 5.40088C11.5575 5.33712 11.5475 5.27173 11.5349 5.2068C11.5196 5.12779 11.5014 5.0493 11.4858 4.97035C11.4685 4.88333 11.483 4.84464 11.564 4.82477C11.7388 4.78182 11.9157 4.74733 12.0923 4.71151C12.1622 4.69737 12.2101 4.73267 12.2345 4.79368C12.2612 4.86042 12.284 4.92909 12.3022 4.99851C12.3226 5.07583 12.3359 5.15496 12.3533 5.23783C12.4174 5.24274 12.4675 5.24724 12.5178 5.2504C13.1135 5.28762 13.4263 5.64382 13.6886 6.12667C13.7281 6.19925 13.7071 6.25699 13.6333 6.29778C13.593 6.32011 13.5467 6.33536 13.5011 6.34454C13.3916 6.36651 13.2805 6.38065 13.171 6.40245C13.0805 6.42045 13.0184 6.39783 12.9637 6.31812C12.9118 6.24238 12.8409 6.17804 12.7726 6.11463C12.4536 5.81827 11.8666 5.99424 11.6752 6.328C11.5804 6.49327 11.6166 6.70103 11.7678 6.82089C11.8686 6.9016 11.9907 6.95241 12.1198 6.9674C12.2645 6.98459 12.4103 6.99154 12.5554 7.00557C12.7519 7.02456 12.9497 7.03677 13.1441 7.06833C13.7049 7.15938 14.1861 7.60599 14.2784 8.12969C14.3191 8.36065 14.2999 8.58646 14.2008 8.80065C14.0996 9.01945 13.9584 9.21073 13.7577 9.35199C13.6081 9.45736 13.4534 9.5556 13.2767 9.67318Z" fill="white"/>
</svg>
