<svg width="27" height="20" viewBox="0 0 27 20" fill="none" xmlns="http://www.w3.org/2000/svg">
<path d="M2.25 0H24.75C25.9312 0 27 1.05556 27 2.22222V17.7778C27 18.9444 25.9312 20 24.75 20H2.25C1.06875 20 0 18.9444 0 17.7778V2.22222C0 1.05556 1.06875 0 2.25 0ZM15.75 3.33333V4.44444H24.75V3.33333H15.75ZM15.75 5.55556V6.66667H24.1875H24.75V5.55556H15.75ZM15.75 7.77778V8.88889H23.625V7.77778H15.75ZM9 12.1222C6.75 12.1222 2.25 13.3333 2.25 15.5556V16.6667H15.75V15.5556C15.75 13.3333 11.25 12.1222 9 12.1222ZM9 3.33333C8.10489 3.33333 7.24645 3.68452 6.61351 4.30964C5.98058 4.93477 5.625 5.78261 5.625 6.66667C5.625 7.55072 5.98058 8.39857 6.61351 9.02369C7.24645 9.64881 8.10489 10 9 10C9.89511 10 10.7536 9.64881 11.3865 9.02369C12.0194 8.39857 12.375 7.55072 12.375 6.66667C12.375 5.78261 12.0194 4.93477 11.3865 4.30964C10.7536 3.68452 9.89511 3.33333 9 3.33333Z" fill="black"/>
</svg>
