<svg width="15" height="22" viewBox="0 0 15 22" fill="none" xmlns="http://www.w3.org/2000/svg">
<path d="M7.66 12.67C7.32 13 6.93 13.29 6.5 13.5V20L4.5 22L2.5 20L4.5 18.29L3 17L4.5 15.71L2.5 14V13.5C1 12.77 0 11.26 0 9.5C0 7 2 5 4.5 5C4.54 5 4.58 5 4.61 5C4.59 5.07 4.54 5.12 4.5 5.18C4.23 5.79 4.08 6.43 4.03 7.08C3.43 7.28 3 7.84 3 8.5C3 9.33 3.67 10 4.5 10C4.53 10 4.57 10 4.6 10C5.24 11.25 6.34 12.2 7.66 12.67ZM11 5C11 4.37 10.9 3.75 10.72 3.18C12.06 3.56 13.21 4.55 13.73 5.96C14.33 7.62 13.89 9.39 12.75 10.59L15 16.68L13.78 19.25L11.22 18.05L12.5 15.76L10.66 15.06L11.63 13.34L9.16 12.41L9 11.95C7.36 11.77 5.88 10.7 5.27 9.04C4.42 6.71 5.63 4.12 7.96 3.27C8.14 3.21 8.33 3.17 8.5 3.13C7.84 1.87 6.53 1 5 1C2.79 1 1 2.79 1 5C1 5.09 1 5.17 1.03 5.26C0.7 5.53 0.4 5.82 0.15 6.15C0.0600001 5.78 0 5.4 0 5C0 2.24 2.24 0 5 0C7.76 0 10 2.24 10 5C10 6.16 9.6 7.21 8.94 8.06C11.08 7.88 11 5 11 5ZM7.81 7.1C7.87 7.27 7.96 7.41 8.06 7.54C8.62 6.88 8.97 6.04 9 5.11C8.89 5.13 8.8 5.15 8.7 5.18C7.92 5.47 7.5 6.33 7.81 7.1Z" fill="white"/>
</svg>
