<svg width="20" height="21" viewBox="0 0 20 21" fill="none" xmlns="http://www.w3.org/2000/svg">
<path d="M18.8625 9.0221C18.5547 8.79514 18.1669 8.51163 18.1199 8.32641C18.1397 7.96788 18.242 7.61877 18.419 7.30637C18.6903 6.68373 18.9703 6.0385 18.659 5.50195C18.3478 4.96539 17.6399 4.87845 16.9591 4.80626C16.6062 4.80389 16.2585 4.7209 15.9426 4.56364C15.7851 4.24658 15.7024 3.89762 15.7009 3.5436C15.6244 2.86271 15.5452 2.15833 15.0053 1.84353C14.4653 1.52872 13.8192 1.80439 13.1967 2.07917C12.884 2.25612 12.5346 2.35849 12.1759 2.37833C11.9881 2.32791 11.7055 1.94352 11.4802 1.63568C11.0855 1.10349 10.6411 0.5 9.99943 0.5C9.35772 0.5 8.91341 1.10349 8.52123 1.63568C8.29343 1.94437 8.01081 2.33137 7.8256 2.37918C7.46715 2.35759 7.11821 2.25533 6.8048 2.08003C6.17874 1.80435 5.53357 1.52958 4.99882 1.83917C4.46406 2.14876 4.37452 2.85835 4.29797 3.54356C4.29549 3.89636 4.21282 4.24398 4.05623 4.56013C3.74093 4.71514 3.39458 4.7966 3.04325 4.79839C2.36156 4.8749 1.65635 4.95406 1.34247 5.49408C1.02859 6.0341 1.30428 6.67941 1.57904 7.30291C1.75661 7.61632 1.85901 7.96669 1.87816 8.32641C1.82775 8.51424 1.44339 8.79774 1.13558 9.0221C0.603433 9.41342 0 9.85867 0 10.5004C0 11.1422 0.603433 11.5874 1.13648 11.9788C1.44429 12.2057 1.83211 12.4892 1.87906 12.6744C1.85933 13.033 1.75695 13.3821 1.57993 13.6945C1.30864 14.3171 1.02867 14.9624 1.33994 15.4989C1.65122 16.0355 2.35904 16.1224 3.03987 16.1946C3.39276 16.197 3.74043 16.28 4.05635 16.4372C4.21385 16.7543 4.29654 17.1032 4.29809 17.4573C4.3746 18.1382 4.45375 18.8425 4.99372 19.1573C5.5337 19.4721 6.17455 19.1886 6.79799 18.9173C7.11382 18.7423 7.46523 18.6412 7.82576 18.6217C8.01358 18.6721 8.29616 19.0565 8.52139 19.3643C8.91354 19.8965 9.35789 20.5 9.99959 20.5C10.6413 20.5 11.0856 19.8965 11.4778 19.3643C11.7056 19.0556 11.9882 18.6686 12.1734 18.6208C12.5321 18.6411 12.8813 18.7434 13.1942 18.92C13.8168 19.1913 14.462 19.4696 14.9976 19.1608C15.5332 18.8521 15.6219 18.1417 15.6984 17.4599C15.7009 17.1071 15.7836 16.7595 15.9402 16.4433C16.2561 16.287 16.6034 16.2047 16.9558 16.2025C17.6375 16.126 18.3427 16.0468 18.6565 15.5068C18.9704 14.9668 18.687 14.3259 18.4166 13.7024C18.2396 13.3873 18.1383 13.0354 18.1209 12.6745C18.1714 12.4867 18.5557 12.2032 18.8635 11.9788C19.3957 11.5866 20 11.1414 20 10.5005C20 9.85956 19.3955 9.41342 18.8625 9.0221Z" fill="#FFC107"/>
<path d="M6.39091 12.1744C6.32342 12.1744 6.25685 12.1587 6.19648 12.1285C6.13612 12.0983 6.08361 12.0545 6.04312 12.0005L4.21712 9.56562V11.7396C4.21712 11.9797 4.02246 12.1744 3.78235 12.1744C3.54224 12.1744 3.34757 11.9797 3.34757 11.7396V8.26122C3.34757 8.02109 3.54224 7.82641 3.78235 7.82641C3.91918 7.82641 4.04805 7.89085 4.13014 8.00034L5.95614 10.4352V8.26122C5.95614 8.02109 6.1508 7.82641 6.39091 7.82641C6.63102 7.82641 6.82568 8.02109 6.82568 8.26122V11.7396C6.82562 11.8308 6.79687 11.9197 6.7435 11.9937C6.69013 12.0676 6.61485 12.123 6.52831 12.1518C6.48405 12.1668 6.43764 12.1744 6.39091 12.1744ZM9.86902 12.1744H8.12996C7.88985 12.1744 7.69519 11.9797 7.69519 11.7396V10.0004V8.26122C7.69519 8.02109 7.88985 7.82641 8.12996 7.82641H9.86902C10.1091 7.82641 10.3038 8.02109 10.3038 8.26122C10.3038 8.50135 10.1091 8.69603 9.86902 8.69603H8.56474V9.56557V10.4352V11.3048H9.86902C10.1091 11.3048 10.3038 11.4995 10.3038 11.7396C10.3038 11.9798 10.1091 12.1744 9.86902 12.1744Z" fill="#FAFAFA"/>
<path d="M14.2166 12.1744C14.1252 12.1745 14.0362 12.1459 13.962 12.0925C13.8879 12.0391 13.8324 11.9637 13.8036 11.877L13.3471 10.5056L12.8906 11.877C12.8636 11.9681 12.8063 12.0472 12.7282 12.1011C12.65 12.1551 12.5557 12.1806 12.461 12.1735C12.367 12.17 12.2767 12.136 12.2036 12.0767C12.1306 12.0175 12.0787 11.9361 12.0558 11.8448L11.1863 8.36647C11.1282 8.13331 11.2701 7.89717 11.5033 7.83905C11.7364 7.78092 11.9725 7.92285 12.0307 8.15601L12.5376 10.1857L12.9349 8.99343C13.0383 8.76553 13.3067 8.66456 13.5346 8.7679C13.6346 8.81326 13.7148 8.89341 13.7601 8.99343L14.1575 10.1857L14.6644 8.15601C14.7225 7.92285 14.9586 7.78092 15.1918 7.83905C15.4249 7.89717 15.5668 8.13327 15.5087 8.36647L14.6392 11.8448C14.6163 11.9361 14.5645 12.0175 14.4914 12.0767C14.4184 12.136 14.328 12.17 14.234 12.1735L14.2166 12.1744Z" fill="#FAFAFA"/>
<path d="M10.3038 10.0004C10.3038 9.76026 10.1091 9.56557 9.86902 9.56557H8.56474V10.4352L9.86902 10.4352C10.1091 10.4352 10.3038 10.2405 10.3038 10.0004Z" fill="#FAFAFA"/>
</svg>
