<svg width="22" height="16" viewBox="0 0 22 16" fill="none" xmlns="http://www.w3.org/2000/svg">
<path d="M1.83333 0H20.1667C21.1292 0 22 0.844445 22 1.77778V14.2222C22 15.1556 21.1292 16 20.1667 16H1.83333C0.870833 16 0 15.1556 0 14.2222V1.77778C0 0.844445 0.870833 0 1.83333 0ZM12.8333 2.66667V3.55556H20.1667V2.66667H12.8333ZM12.8333 4.44444V5.33333H19.7083H20.1667V4.44444H12.8333ZM12.8333 6.22222V7.11111H19.25V6.22222H12.8333ZM7.33333 9.69778C5.5 9.69778 1.83333 10.6667 1.83333 12.4444V13.3333H12.8333V12.4444C12.8333 10.6667 9.16667 9.69778 7.33333 9.69778ZM7.33333 2.66667C6.60399 2.66667 5.90451 2.94762 5.38879 3.44772C4.87306 3.94781 4.58333 4.62609 4.58333 5.33333C4.58333 6.04058 4.87306 6.71885 5.38879 7.21895C5.90451 7.71905 6.60399 8 7.33333 8C8.06268 8 8.76215 7.71905 9.27788 7.21895C9.7936 6.71885 10.0833 6.04058 10.0833 5.33333C10.0833 4.62609 9.7936 3.94781 9.27788 3.44772C8.76215 2.94762 8.06268 2.66667 7.33333 2.66667Z" fill="white"/>
</svg>
