<svg width="20" height="19" viewBox="0 0 20 19" fill="none" xmlns="http://www.w3.org/2000/svg">
<path d="M16.72 11.84C17.07 10.99 17.26 10.08 17.26 9.08C17.26 8.36 17.15 7.67 16.96 7.03C16.31 7.18 15.63 7.26 14.92 7.26C11.86 7.26 9.15 5.75 7.5 3.42C6.61 5.58 4.91 7.34 2.77 8.3C2.73 8.55 2.73 8.82 2.73 9.08C2.73 11.0081 3.49594 12.8573 4.85933 14.2207C6.22272 15.5841 8.07188 16.35 10 16.35C11.05 16.35 12.06 16.12 12.97 15.71C13.54 16.8 13.8 17.34 13.78 17.34C12.14 17.89 10.87 18.16 10 18.16C7.58 18.16 5.27 17.21 3.57 15.5C2.53 14.46 1.76 13.19 1.33 11.81H0V7.26H1.09C1.93 3.12 5.6 0 10 0C12.4 0 14.71 0.95 16.42 2.66C17.69 3.92 18.54 5.53 18.89 7.26H20V11.75V11.77V11.81H19.94L16.38 15.08L11.08 14.48V12.81H15.91L16.72 11.84ZM7.27 8.85C7.57 8.85 7.86 8.97 8.07 9.19C8.28 9.4 8.4 9.69 8.4 9.99C8.4 10.29 8.28 10.58 8.07 10.79C7.86 11 7.57 11.12 7.27 11.12C6.64 11.12 6.13 10.62 6.13 9.99C6.13 9.36 6.64 8.85 7.27 8.85ZM12.72 8.85C13.35 8.85 13.85 9.36 13.85 9.99C13.85 10.62 13.35 11.12 12.72 11.12C12.09 11.12 11.58 10.62 11.58 9.99C11.58 9.68765 11.7001 9.39769 11.9139 9.1839C12.1277 8.97011 12.4177 8.85 12.72 8.85Z" fill="white"/>
</svg>
