<svg width="25" height="25" viewBox="0 0 25 25" fill="none" xmlns="http://www.w3.org/2000/svg">
<path d="M18.75 12.5V1.25C18.75 0.918479 18.6183 0.600537 18.3839 0.366116C18.1495 0.131696 17.8315 0 17.5 0H1.25C0.918479 0 0.600537 0.131696 0.366116 0.366116C0.131696 0.600537 0 0.918479 0 1.25V18.75L5 13.75H17.5C17.8315 13.75 18.1495 13.6183 18.3839 13.3839C18.6183 13.1495 18.75 12.8315 18.75 12.5ZM23.75 5H21.25V16.25H5V18.75C5 19.0815 5.1317 19.3995 5.36612 19.6339C5.60054 19.8683 5.91848 20 6.25 20H20L25 25V6.25C25 5.91848 24.8683 5.60054 24.6339 5.36612C24.3995 5.1317 24.0815 5 23.75 5Z" fill="black"/>
</svg>
