<svg width="20" height="15" viewBox="0 0 20 15" fill="none" xmlns="http://www.w3.org/2000/svg">
<path d="M3.21429 0C2.3618 0 1.54424 0.323254 0.941442 0.89865C0.338647 1.47405 0 2.25445 0 3.06818V11.9318C0 12.7456 0.338647 13.526 0.941442 14.1013C1.54424 14.6767 2.3618 15 3.21429 15H16.7857C17.6382 15 18.4558 14.6767 19.0586 14.1013C19.6614 13.526 20 12.7456 20 11.9318V3.06818C20 2.25445 19.6614 1.47405 19.0586 0.89865C18.4558 0.323254 17.6382 0 16.7857 0H3.21429ZM18.5714 3.68386L10 8.08909L1.42857 3.68386V3.06818C1.42857 2.61611 1.61671 2.18255 1.9516 1.86289C2.28648 1.54322 2.74068 1.36364 3.21429 1.36364H16.7857C17.2593 1.36364 17.7135 1.54322 18.0484 1.86289C18.3833 2.18255 18.5714 2.61611 18.5714 3.06818V3.68386ZM1.42857 5.23227L9.66143 9.46432C9.76549 9.51779 9.88182 9.54578 10 9.54578C10.1182 9.54578 10.2345 9.51779 10.3386 9.46432L18.5714 5.23227V11.9318C18.5714 12.3839 18.3833 12.8174 18.0484 13.1371C17.7135 13.4568 17.2593 13.6364 16.7857 13.6364H3.21429C2.74068 13.6364 2.28648 13.4568 1.9516 13.1371C1.61671 12.8174 1.42857 12.3839 1.42857 11.9318V5.23227Z" fill="black"/>
</svg>
