<svg width="22" height="22" viewBox="0 0 22 22" fill="none" xmlns="http://www.w3.org/2000/svg">
<circle cx="11" cy="11" r="11" fill="#FFDE59"/>
<path d="M7 11.508C7 10.6927 7.20382 9.93739 7.60746 9.246C8.0111 8.55462 8.55861 8.0071 9.25 7.60346C9.94139 7.19982 10.6927 7 11.504 7C12.1115 7 12.6949 7.11989 13.2504 7.35568C13.806 7.59147 14.2815 7.91519 14.6852 8.31483C15.0888 8.71448 15.4085 9.19405 15.6443 9.75355C15.8801 10.3131 16 10.8925 16 11.508C16 12.1155 15.8801 12.6989 15.6443 13.2544C15.4085 13.8099 15.0848 14.2895 14.6852 14.6892C14.2855 15.0888 13.806 15.4085 13.2504 15.6443C12.6949 15.8801 12.1155 16 11.504 16C10.8925 16 10.3051 15.8801 9.74956 15.6443C9.19405 15.4085 8.71448 15.0848 8.31083 14.6852C7.90719 14.2855 7.59147 13.806 7.35169 13.2544C7.1119 12.7029 7 12.1195 7 11.508ZM7.99112 11.508C7.99112 12.4552 8.33481 13.2784 9.0262 13.9778C9.71758 14.6692 10.5409 15.0129 11.504 15.0129C12.1354 15.0129 12.7229 14.857 13.2584 14.5413C13.794 14.2256 14.2256 13.802 14.5413 13.2624C14.857 12.7229 15.0169 12.1394 15.0169 11.508C15.0169 10.8766 14.857 10.2891 14.5413 9.74956C14.2256 9.21004 13.798 8.78242 13.2584 8.4667C12.7189 8.15098 12.1354 7.99512 11.504 7.99512C10.8726 7.99512 10.2851 8.15098 9.74956 8.4667C9.21403 8.78242 8.78242 9.21004 8.4627 9.74956C8.14298 10.2891 7.99112 10.8766 7.99112 11.508ZM11.1563 11.508V8.84636C11.1563 8.75444 11.1883 8.67451 11.2522 8.61057C11.3162 8.54663 11.3961 8.51465 11.488 8.51465C11.5799 8.51465 11.6599 8.54663 11.7238 8.61057C11.7877 8.67451 11.8197 8.75444 11.8197 8.84636V11.3042L13.2544 12.1394C13.3344 12.1874 13.3823 12.2553 13.4063 12.3433C13.4303 12.4312 13.4183 12.5151 13.3703 12.591C13.3064 12.7029 13.2105 12.7589 13.0826 12.7589C13.0147 12.7589 12.9587 12.7429 12.9147 12.7109L11.3881 11.8197C11.3202 11.7997 11.2642 11.7598 11.2202 11.7038C11.1763 11.6479 11.1563 11.5839 11.1563 11.508Z" fill="black"/>
</svg>
