<svg width="11" height="9" viewBox="0 0 11 9" fill="none" xmlns="http://www.w3.org/2000/svg">
<path fill-rule="evenodd" clip-rule="evenodd" d="M0.146631 8.14663C0.100144 8.19312 0.0632674 8.24831 0.0381083 8.30905C0.0129493 8.36979 0 8.43489 0 8.50063C0 8.56637 0.0129493 8.63148 0.0381083 8.69221C0.0632674 8.75295 0.100144 8.80814 0.146631 8.85463C0.193119 8.90112 0.248309 8.938 0.309048 8.96315C0.369788 8.98831 0.434888 9.00126 0.500632 9.00126C0.566375 9.00126 0.631476 8.98831 0.692215 8.96315C0.752954 8.938 0.808144 8.90112 0.854632 8.85463L4.85463 4.85463C4.90119 4.80819 4.93814 4.75301 4.96334 4.69227C4.98855 4.63152 5.00152 4.5664 5.00152 4.50063C5.00152 4.43486 4.98855 4.36974 4.96334 4.309C4.93814 4.24825 4.90119 4.19308 4.85463 4.14663L0.854632 0.146631C0.808144 0.100144 0.752954 0.0632674 0.692215 0.0381083C0.631476 0.0129493 0.566375 4.8983e-10 0.500632 0C0.434888 -4.8983e-10 0.369788 0.0129493 0.309048 0.0381083C0.248309 0.0632674 0.193119 0.100144 0.146631 0.146631C0.100144 0.193119 0.0632674 0.248309 0.0381083 0.309048C0.0129493 0.369788 -4.8983e-10 0.434888 0 0.500632C4.8983e-10 0.566375 0.0129493 0.631476 0.0381083 0.692215C0.0632674 0.752954 0.100144 0.808144 0.146631 0.854632L3.79363 4.50063L0.146631 8.14663ZM6.14663 8.14663C6.05274 8.24052 6 8.36786 6 8.50063C6 8.63341 6.05274 8.76075 6.14663 8.85463C6.24052 8.94852 6.36786 9.00126 6.50063 9.00126C6.63341 9.00126 6.76074 8.94852 6.85463 8.85463L10.8546 4.85463C10.9012 4.80819 10.9381 4.75301 10.9633 4.69227C10.9886 4.63152 11.0015 4.5664 11.0015 4.50063C11.0015 4.43486 10.9886 4.36974 10.9633 4.309C10.9381 4.24825 10.9012 4.19308 10.8546 4.14663L6.85463 0.146631C6.76074 0.0527448 6.63341 0 6.50063 0C6.36786 0 6.24052 0.0527448 6.14663 0.146631C6.05274 0.240518 6 0.367856 6 0.500632C6 0.633407 6.05274 0.760745 6.14663 0.854632L9.79363 4.50063L6.14663 8.14663Z" fill="black"/>
</svg>
