<svg width="21" height="25" viewBox="0 0 21 25" fill="none" xmlns="http://www.w3.org/2000/svg">
<path d="M21 5.35714C21 7.65476 19.1683 9.52381 16.9167 9.52381C14.665 9.52381 12.8333 7.65476 12.8333 5.35714C12.8333 3.05952 14.665 1.19048 16.9167 1.19048C19.1683 1.19048 21 3.05952 21 5.35714ZM18.6667 11.6548C18.0833 11.8095 17.5 11.9048 16.9167 11.9048C13.3817 11.9048 10.5 8.96429 10.5 5.35714C10.5 3.60714 11.1767 2.02381 12.25 0.845238C11.8417 0.333333 11.2117 0 10.5 0C9.21667 0 8.16667 1.07143 8.16667 2.38095V2.72619C4.70167 3.77381 2.33333 7.02381 2.33333 10.7143V17.8571L0 20.2381V21.4286H21V20.2381L18.6667 17.8571V11.6548ZM10.5 25C11.795 25 12.8333 23.9405 12.8333 22.619H8.16667C8.16667 23.9405 9.21667 25 10.5 25Z" fill="black"/>
<path d="M16.9167 9.52381C19.1683 9.52381 21 7.65476 21 5.35714C21 3.05952 19.1683 1.19048 16.9167 1.19048C14.665 1.19048 12.8333 3.05952 12.8333 5.35714C12.8333 7.65476 14.665 9.52381 16.9167 9.52381Z" fill="#FFDE59"/>
</svg>
