<svg width="26" height="20" viewBox="0 0 26 20" fill="none" xmlns="http://www.w3.org/2000/svg">
<path d="M12.8359 0.00783531C9.80766 -0.0362343 5.60106 0.028195 4.73499 2.33425L2.60711 7.28345C2.51274 7.17644 2.38896 7.09898 2.25091 7.06053L1.3942 6.82162C1.29999 6.79515 1.20144 6.78737 1.1042 6.79875C1.00695 6.81012 0.912936 6.84042 0.827537 6.8879C0.742138 6.93539 0.667042 6.99912 0.606558 7.07545C0.546074 7.15177 0.501394 7.23919 0.475082 7.33268L0.0281352 8.90578C0.00146293 8.99914 -0.00635021 9.0968 0.00514401 9.19316C0.0166382 9.28952 0.0472136 9.38268 0.095116 9.4673C0.143018 9.55191 0.207305 9.62632 0.284288 9.68626C0.361271 9.74619 0.449435 9.79047 0.543723 9.81655L1.4007 10.0557C1.4293 10.0634 1.4579 10.066 1.4865 10.0707C1.32269 10.4753 1.22077 10.9201 1.22077 11.1848V16.937C1.22077 17.2319 1.34557 17.3684 1.5437 17.4324V18.9647C1.54339 19.1008 1.57019 19.2355 1.62257 19.3613C1.67495 19.487 1.75187 19.6013 1.84892 19.6975C1.94596 19.7937 2.06122 19.8699 2.18808 19.9218C2.31494 19.9737 2.45089 20.0003 2.58813 20H5.3902C5.52744 20.0003 5.66339 19.9737 5.79025 19.9218C5.9171 19.8699 6.03236 19.7937 6.12941 19.6975C6.22646 19.6013 6.30338 19.487 6.35576 19.3613C6.40813 19.2355 6.43494 19.1008 6.43463 18.9647V17.4885H19.5656V18.9647C19.5654 19.1008 19.5922 19.2355 19.6446 19.3613C19.6971 19.487 19.774 19.6012 19.8711 19.6974C19.9681 19.7936 20.0834 19.8698 20.2103 19.9218C20.3371 19.9737 20.4731 20.0003 20.6103 20H23.4118C23.5491 20.0003 23.6851 19.9737 23.812 19.9218C23.9389 19.8699 24.0542 19.7937 24.1512 19.6975C24.2483 19.6013 24.3253 19.4871 24.3777 19.3613C24.4302 19.2356 24.457 19.1008 24.4568 18.9647V17.4326C24.6552 17.3687 24.7792 17.2321 24.7792 16.9373V11.185C24.7792 10.9204 24.677 10.4755 24.5135 10.0709C24.5421 10.0665 24.5707 10.064 24.5993 10.056L25.4565 9.81681C25.5508 9.7907 25.6389 9.7464 25.7159 9.68646C25.7928 9.62651 25.8571 9.5521 25.905 9.46748C25.9528 9.38287 25.9834 9.28971 25.9949 9.19337C26.0063 9.09702 25.9985 8.99938 25.9718 8.90604L25.5254 7.33293C25.4991 7.23944 25.4544 7.15202 25.3939 7.07569C25.3334 6.99936 25.2582 6.93563 25.1728 6.88814C25.0874 6.84066 24.9934 6.81037 24.8961 6.79899C24.7988 6.78762 24.7003 6.7954 24.606 6.82188L23.7493 7.06078C23.6113 7.09939 23.4875 7.17682 23.3929 7.28371L21.265 2.33451C20.3368 -0.00659645 15.8639 0.0521628 12.8357 0.00809313L12.8359 0.00783531ZM21.5089 7.59606C21.5593 7.74451 21.4085 7.84347 21.2507 7.85249C21.2507 7.85249 20.7348 7.89579 20.0235 7.95274C19.4821 6.69921 18.2242 5.81575 16.7669 5.81575C15.1676 5.81575 13.8099 6.88012 13.3744 8.32953C13.2538 8.33107 13.1136 8.33623 13.0015 8.33623C10.2463 8.33623 4.74929 7.85249 4.74929 7.85249C4.59172 7.84321 4.44066 7.74425 4.4911 7.59606C6.60805 1.19926 6.67123 1.68016 12.883 1.74743C19.0945 1.81443 19.1306 1.3575 21.5089 7.59606ZM16.7669 7.0247C17.1504 7.02339 17.5282 7.11672 17.8663 7.29628C18.2043 7.47585 18.4919 7.73599 18.7032 8.05325C17.4591 8.14474 16.0272 8.23829 14.6929 8.29267C14.8849 7.91062 15.1809 7.58941 15.5474 7.36535C15.9139 7.14128 16.3363 7.02329 16.7669 7.0247ZM2.44565 9.10062C2.46437 9.12819 2.48257 9.15577 2.50337 9.18231H2.42277L2.44565 9.10062ZM3.82211 10.7072C4.36708 10.6985 7.29264 11.6744 7.29264 11.6744C7.65795 11.7765 7.97957 12.461 7.97775 12.8373C7.97229 14.1045 4.67336 13.6645 3.33408 13.6697C3.24409 13.6699 3.15494 13.6524 3.07176 13.6184C2.98858 13.5843 2.913 13.5343 2.84935 13.4713C2.7857 13.4082 2.73524 13.3333 2.70085 13.2509C2.66647 13.1684 2.64884 13.0801 2.64897 12.9909V11.3866C2.64897 11.0103 3.27714 10.7165 3.82211 10.7072ZM22.1779 10.7072C22.7228 10.7162 23.351 11.0103 23.351 11.3866V12.9909C23.3512 13.0801 23.3336 13.1685 23.2992 13.2509C23.2648 13.3334 23.2144 13.4083 23.1507 13.4714C23.0871 13.5345 23.0115 13.5845 22.9283 13.6186C22.8451 13.6527 22.7559 13.6701 22.6659 13.6699C21.3269 13.6648 18.0277 14.1045 18.0222 12.8373C18.0204 12.461 18.342 11.7765 18.7073 11.6744C18.7073 11.6744 21.6329 10.6985 22.1779 10.7072Z" fill="black"/>
</svg>
